<svg xmlns="http://www.w3.org/2000/svg" width="377.102" height="89.019" viewBox="0 0 377.102 89.019">
  <g id="Logo" transform="translate(-2183.662 -909.744)">
    <g id="Groupe_36" data-name="Groupe 36" transform="translate(2183.662 909.744)">
      <g id="Groupe_31" data-name="Groupe 31" transform="translate(9.316 50.226)">
        <path id="Tracé_70" data-name="Tracé 70" d="M2254.041,1292.062l-.609-.088q-.179-.027-.288-.039a.521.521,0,0,0-.162,0,.107.107,0,0,0-.072.044.186.186,0,0,0-.023.094l-.021.307-.154.044q-.088-.438-.148-.711t-.154-.65l.147-.049.167.3a.306.306,0,0,0,.147.144,1.346,1.346,0,0,0,.26.069l3.977.686.12.314-3.366,2.107a1.04,1.04,0,0,0-.253.2.351.351,0,0,0-.067.2l-.022.314-.148.042q-.081-.408-.173-.819-.12-.544-.245-1.059l.146-.048.154.278a.214.214,0,0,0,.064.077.112.112,0,0,0,.087.009.582.582,0,0,0,.152-.065q.091-.052.237-.144l.521-.324Zm1.869.266q-.168-.02-.35-.045l-1.18-.17.223,1,1-.611Q2255.764,1292.411,2255.909,1292.328Z" transform="translate(-2252.409 -1289.573)" fill="#fff"/>
        <path id="Tracé_71" data-name="Tracé 71" d="M2261.689,1320.357q-.143-.37-.3-.76l.138-.07.255.344a.1.1,0,0,0,.119.043l.259-.1.314-.12,2.288-.884.261-.1.213-.088a.1.1,0,0,0,.068-.106l-.037-.428.144-.065q.144.406.285.774.12.31.245.589t.241.583a2.613,2.613,0,0,1,.165,1.788,1.808,1.808,0,0,1-1.151,1.065,2.363,2.363,0,0,1-1.881.039,2.467,2.467,0,0,1-1.238-1.457q-.116-.3-.2-.534C2261.823,1320.715,2261.761,1320.543,2261.689,1320.357Zm.506.438a2.219,2.219,0,0,0,.071.283c.029.09.061.18.1.27a1.185,1.185,0,0,0,.806.778,2.415,2.415,0,0,0,1.463-.193,2.365,2.365,0,0,0,1.179-.812,1.209,1.209,0,0,0,.046-1.14c-.063-.165-.139-.336-.225-.514Z" transform="translate(-2260.168 -1312.925)" fill="#fff"/>
        <path id="Tracé_72" data-name="Tracé 72" d="M2282.584,1355.087q.209.37.387.662c.106.174.233.376.383.607l-.125.1-.322-.3a.1.1,0,0,0-.125-.01q-.177.1-.44.26l-2.1,1.272q-.311.188-.521.323a.1.1,0,0,0-.038.12l.11.4-.125.09q-.221-.381-.5-.839t-.459-.74l.124-.093.275.247a.106.106,0,0,0,.135.008q.211-.117.521-.3l1.684-1.022q.137-.082.528-.31-.281.048-.583.095l-3.2.509-.165-.224,1.885-2.512q.159-.219.365-.473-.371.232-.489.3l-1.629.988q-.311.188-.512.318a.106.106,0,0,0-.053.126l.083.345-.126.088q-.181-.316-.32-.544t-.367-.587l.124-.093.311.293a.1.1,0,0,0,.125.022q.217-.124.527-.312l2.1-1.272q.264-.16.433-.27a.1.1,0,0,0,.049-.116l-.111-.415.13-.089q.254.443.387.662.182.3.382.607l-1.761,2.325q-.114.152-.219.28l.351-.062Z" transform="translate(-2273.553 -1342.068)" fill="#fff"/>
        <path id="Tracé_73" data-name="Tracé 73" d="M2304.91,1392.1l-.26.213-.208.174a.117.117,0,0,0-.017.149l.155.362-.114.1q-.263-.338-.59-.742t-.612-.74l.11-.109.348.248a.1.1,0,0,0,.126,0q.1-.075.217-.17l.263-.211,1.9-1.546.217-.178.176-.149a.1.1,0,0,0,.032-.121l-.167-.4.116-.106q.26.34.588.744t.615.738l-.112.111-.349-.249a.1.1,0,0,0-.122,0l-.188.147q-.1.079-.214.172Z" transform="translate(-2296.373 -1374.179)" fill="#fff"/>
        <path id="Tracé_74" data-name="Tracé 74" d="M2317.868,1406.564a.1.1,0,0,0-.02.131l.208.352-.105.121q-.292-.3-.484-.483t-.5-.476l.1-.121.375.205a.1.1,0,0,0,.126-.011q.178-.174.431-.435l1.709-1.76c.143-.147.26-.271.351-.371a.1.1,0,0,0,.018-.125l-.212-.373.1-.119q.3.309.466.47.216.211.419.39l-.317,3.265q-.019.2-.046.41c.1-.1.189-.2.281-.3l1.117-1.151q.208-.214.354-.373a.1.1,0,0,0,.007-.122l-.208-.351.107-.124q.3.3.486.489t.5.469l-.1.123-.384-.206a.1.1,0,0,0-.124.021q-.148.14-.362.36l-2.382,2.453-.278-.222.376-3.869q.019-.174.051-.41-.154.168-.287.3l-1.357,1.4Q2318.029,1406.389,2317.868,1406.564Z" transform="translate(-2308.216 -1386.47)" fill="#fff"/>
        <path id="Tracé_75" data-name="Tracé 75" d="M2348.026,1431.273c-.075.1-.142.187-.2.267s-.114.153-.161.218a.117.117,0,0,0,.018.149l.235.315-.087.128q-.334-.267-.747-.583-.428-.327-.769-.576l.081-.132.4.16a.1.1,0,0,0,.124-.026c.052-.064.109-.136.171-.216s.131-.169.206-.267l1.489-1.95c.063-.081.119-.156.169-.223l.136-.186a.1.1,0,0,0,0-.125l-.256-.346.088-.13q.333.27.747.585t.77.573l-.083.134-.4-.16a.1.1,0,0,0-.12.025l-.148.187q-.079.1-.169.218Z" transform="translate(-2333.588 -1407.781)" fill="#fff"/>
        <path id="Tracé_76" data-name="Tracé 76" d="M2368.141,1443.549a1.171,1.171,0,0,0-.323-.291.826.826,0,0,0-.57-.13.663.663,0,0,0-.553.6.819.819,0,0,0,.046.3,1.47,1.47,0,0,0,.143.3q.092.152.194.309c.075.116.148.238.218.365a1.632,1.632,0,0,1,.157.395,1.239,1.239,0,0,1-1.075,1.479,2,2,0,0,1-1.245-.353,3.543,3.543,0,0,1-.84-.729v-.033l.723-.855.179.075-.3.922a1.171,1.171,0,0,0,.365.346.951.951,0,0,0,.64.164.656.656,0,0,0,.483-.325.634.634,0,0,0,.1-.309.822.822,0,0,0-.046-.3,1.567,1.567,0,0,0-.147-.307q-.094-.152-.2-.311c-.074-.118-.146-.239-.216-.363a1.467,1.467,0,0,1-.155-.386,1.106,1.106,0,0,1,.158-.884,1.122,1.122,0,0,1,.875-.557,1.85,1.85,0,0,1,1.174.32,4.437,4.437,0,0,1,.807.667v.034l-.683.742-.158-.066Z" transform="translate(-2349.13 -1420.671)" fill="#fff"/>
        <path id="Tracé_77" data-name="Tracé 77" d="M2393.4,1456.2q-.491-.23-.94-.431l.051-.146.5.087a.1.1,0,0,0,.115-.055q.1-.206.258-.535l1.278-2.722-.8-.377-.6.621-.168-.048.416-1.076.03-.013q.68.333,1.307.627l.778.365q.627.294,1.326.608l.006.03-.663.933-.167-.048.18-.854-.805-.378-1.278,2.722q-.154.329-.247.54a.1.1,0,0,0,.033.125l.38.328-.057.143Q2393.87,1456.418,2393.4,1456.2Z" transform="translate(-2373.48 -1428.313)" fill="#fff"/>
        <path id="Tracé_78" data-name="Tracé 78" d="M2420.23,1467.884c-.037.117-.069.223-.1.316s-.053.179-.075.256a.113.113,0,0,0,.032.136l.275.2-.037.15q-.323-.111-.805-.26c-.344-.107-.649-.2-.92-.277l.031-.152.428.014a.1.1,0,0,0,.108-.066q.039-.117.086-.262c.031-.1.065-.2.1-.321l.729-2.342q.046-.147.083-.268c.023-.08.045-.154.063-.222a.1.1,0,0,0-.04-.119l-.358-.238.038-.152q.408.14.84.274.091.029.228.066l.332.092.3.083.188.055a2.148,2.148,0,0,1,1.054.605.871.871,0,0,1,.148.855,1.1,1.1,0,0,1-.451.635,1.526,1.526,0,0,1-.806.2q.133.441.2.709c.042.179.085.355.13.529s.087.328.125.463a1.709,1.709,0,0,0,.125.329q.04.061.077.108a.722.722,0,0,0,.084.087.751.751,0,0,0,.1.075c.036.023.078.047.124.073l-.034.153a4.956,4.956,0,0,1-.671-.164,1.6,1.6,0,0,1-.4-.166.714.714,0,0,1-.175-.174,1.217,1.217,0,0,1-.163-.354c-.04-.137-.079-.29-.119-.459s-.08-.348-.118-.536-.083-.376-.133-.563l-.037-.134a.275.275,0,0,0-.035-.084.189.189,0,0,0-.049-.051.33.33,0,0,0-.073-.037l-.123-.041Zm.385-1.237q.153.058.28.1a.831.831,0,0,0,.677-.02.989.989,0,0,0,.4-.6.942.942,0,0,0,.01-.689.8.8,0,0,0-.518-.379c-.045-.014-.094-.027-.147-.039s-.113-.024-.18-.037Z" transform="translate(-2396.082 -1439.353)" fill="#fff"/>
        <path id="Tracé_79" data-name="Tracé 79" d="M2452.922,1478.413l-.307.533q-.09.157-.142.253a.558.558,0,0,0-.06.151.108.108,0,0,0,.015.083.188.188,0,0,0,.078.056l.278.132-.016.159q-.439-.08-.716-.125c-.193-.031-.413-.063-.661-.1l.01-.155.341-.045a.307.307,0,0,0,.188-.083,1.348,1.348,0,0,0,.159-.216l2.106-3.443.336,0,.715,3.906a1.022,1.022,0,0,0,.092.31.355.355,0,0,0,.16.136l.284.136-.015.153q-.409-.075-.825-.142-.55-.088-1.074-.164l.01-.155.315-.04a.211.211,0,0,0,.1-.031.112.112,0,0,0,.041-.078.556.556,0,0,0,0-.164c-.01-.069-.025-.161-.046-.274l-.109-.6Zm.937-1.639c-.053.1-.11.2-.172.309l-.593,1.033,1.015.164-.2-1.157Q2453.883,1476.94,2453.86,1476.774Z" transform="translate(-2424.427 -1449.161)" fill="#fff"/>
        <path id="Tracé_80" data-name="Tracé 80" d="M2488.841,1482.52q-.542-.019-1.034-.027l-.01-.154.5-.118a.1.1,0,0,0,.083-.1c.01-.153.018-.351.027-.593l.107-3.005-.886-.032-.312.808-.173.022-.039-1.153.022-.024q.757.039,1.448.064l.858.031q.692.025,1.458.039l.018.025-.243,1.118-.174.021-.169-.856-.889-.032-.106,3.006q-.013.363-.015.594a.1.1,0,0,0,.08.1l.478.153,0,.154Q2489.361,1482.539,2488.841,1482.52Z" transform="translate(-2455.297 -1451.348)" fill="#fff"/>
        <path id="Tracé_81" data-name="Tracé 81" d="M2518.4,1476.954l.774-.081q.744-.078,1.541-.174l.024.022-.083,1.039-.163.042-.274-.723-1.185.125.17,1.625.166-.017q.266-.028.572-.066a.105.105,0,0,0,.1-.094l.066-.431.2-.03q.037.445.061.665t.078.654l-.2.036-.159-.42a.1.1,0,0,0-.1-.076q-.313.026-.582.055l-.162.017.11,1.05c.024.225.049.447.076.667l1.224-.129.3-.846.184-.047.047,1.152-.02.024q-.763.071-1.485.147l-.811.085q-.4.041-.813.095l-.032-.152.4-.156a.1.1,0,0,0,.073-.1c-.006-.082-.015-.173-.024-.275s-.021-.213-.033-.335l-.256-2.44q-.016-.153-.031-.278c-.01-.083-.02-.16-.029-.229a.1.1,0,0,0-.084-.094l-.423-.076-.026-.155Q2518.012,1476.994,2518.4,1476.954Z" transform="translate(-2481.647 -1450.095)" fill="#fff"/>
        <path id="Tracé_82" data-name="Tracé 82" d="M2545.062,1470.011q.419-.085.926-.2t.921-.227l.051.149-.364.2a.1.1,0,0,0-.057.108c.015.072.031.15.05.233s.039.172.061.269l.385,1.652a1.959,1.959,0,0,0,.51,1.074.978.978,0,0,0,.871.128,1.017,1.017,0,0,0,.737-.521,1.741,1.741,0,0,0,.021-1.138l-.394-1.691c-.022-.1-.044-.185-.066-.268s-.041-.16-.06-.231a.1.1,0,0,0-.1-.072l-.4-.018-.046-.156q.4-.081.692-.149.27-.063.675-.17l.051.149-.38.212a.1.1,0,0,0-.052.116c.013.069.03.144.048.226s.039.173.062.273l.354,1.523a2.171,2.171,0,0,1-.079,1.578,1.662,1.662,0,0,1-1.129.735,1.93,1.93,0,0,1-1.458-.111,1.9,1.9,0,0,1-.757-1.266l-.385-1.655q-.034-.15-.065-.272c-.02-.082-.039-.156-.057-.224a.1.1,0,0,0-.095-.082l-.428-.023Z" transform="translate(-2505.404 -1443.426)" fill="#fff"/>
        <path id="Tracé_83" data-name="Tracé 83" d="M2583.137,1464.3c.046.114.087.217.125.306s.071.172.1.246.063.089.11.085l.336-.022.066.14q-.321.118-.79.305-.5.2-.888.365l-.071-.137.34-.259a.1.1,0,0,0,.042-.119q-.043-.115-.1-.258c-.037-.095-.078-.2-.124-.313l-.911-2.278q-.056-.143-.1-.26l-.09-.212a.1.1,0,0,0-.107-.067l-.427.042-.067-.142q.405-.148.825-.316.089-.036.218-.093l.316-.138.284-.123.18-.075a2.156,2.156,0,0,1,1.2-.195.873.873,0,0,1,.654.571,1.1,1.1,0,0,1,.05.777,1.521,1.521,0,0,1-.5.665q.382.259.6.427t.435.328q.217.161.389.281a1.744,1.744,0,0,0,.3.177,1.315,1.315,0,0,0,.128.035.733.733,0,0,0,.121.015.805.805,0,0,0,.125-.005c.043-.005.091-.012.143-.022l.07.142a4.961,4.961,0,0,1-.625.3,1.579,1.579,0,0,1-.415.123.712.712,0,0,1-.245-.025,1.223,1.223,0,0,1-.349-.172q-.177-.122-.383-.281t-.43-.342c-.149-.121-.3-.24-.458-.354l-.113-.081a.286.286,0,0,0-.08-.042.206.206,0,0,0-.07-.009.329.329,0,0,0-.081.017l-.122.045Zm-.481-1.2q.155-.052.278-.1a.832.832,0,0,0,.513-.442.987.987,0,0,0-.067-.714.939.939,0,0,0-.427-.541.8.8,0,0,0-.641.033c-.044.018-.09.038-.14.062s-.1.052-.163.085Z" transform="translate(-2536.11 -1436.313)" fill="#fff"/>
        <path id="Tracé_84" data-name="Tracé 84" d="M2625.027,1441.76q-.331.22-.676.462l-.1-.119.28-.324a.1.1,0,0,0,.016-.125c-.044-.069-.094-.147-.149-.232l-.186-.281-1.362-2.041c-.057-.086-.109-.163-.156-.232s-.092-.132-.132-.189a.1.1,0,0,0-.118-.043l-.409.129-.095-.125q.364-.229.693-.448.276-.185.521-.366t.516-.363a2.615,2.615,0,0,1,1.709-.55,1.807,1.807,0,0,1,1.291.891,2.363,2.363,0,0,1,.448,1.827,2.468,2.468,0,0,1-1.152,1.526q-.267.178-.479.309T2625.027,1441.76Zm.317-.589a2.262,2.262,0,0,0,.261-.131q.122-.072.242-.152a1.185,1.185,0,0,0,.583-.956,2.417,2.417,0,0,0-.507-1.386,2.363,2.363,0,0,0-1.05-.974,1.211,1.211,0,0,0-1.122.2q-.22.147-.453.331Z" transform="translate(-2571.865 -1415.691)" fill="#fff"/>
        <path id="Tracé_85" data-name="Tracé 85" d="M2652.906,1414.788l.579-.52q.557-.5,1.147-1.045l.032,0,.542.891-.107.129-.646-.425-.887.795,1.091,1.217.124-.111q.2-.179.424-.389a.105.105,0,0,0,.022-.132l-.2-.388.145-.143q.292.339.44.5t.447.484l-.141.147-.375-.247a.1.1,0,0,0-.128,0q-.238.205-.44.386l-.122.109.7.786q.226.252.453.5l.917-.822-.252-.862.121-.146.714.906,0,.031q-.576.5-1.118.99l-.607.545q-.3.265-.6.554l-.114-.1.231-.36a.1.1,0,0,0,0-.127q-.08-.094-.18-.208l-.224-.252-1.638-1.826c-.068-.077-.131-.146-.188-.208s-.11-.119-.158-.169a.1.1,0,0,0-.123-.026l-.387.186-.112-.111Q2652.618,1415.047,2652.906,1414.788Z" transform="translate(-2598.1 -1395.221)" fill="#fff"/>
        <path id="Tracé_86" data-name="Tracé 86" d="M2681.6,1385.594q.273-.334.551-.695l.3-.423q.206-.288.287-.393a2.218,2.218,0,0,1,.915-.778.805.805,0,0,1,.813.127,1.057,1.057,0,0,1,.277,1.316,1.306,1.306,0,0,1,.758-.4.975.975,0,0,1,.729.214,1.084,1.084,0,0,1,.452.974,2.478,2.478,0,0,1-.589,1.318c-.072.094-.151.191-.235.291s-.186.226-.3.381q-.274.356-.524.7l-.131-.082.162-.4a.1.1,0,0,0-.025-.124q-.1-.078-.215-.172l-.266-.207-1.944-1.5-.222-.17q-.1-.076-.186-.137a.1.1,0,0,0-.125,0l-.347.253Zm2.373.036q.1-.122.185-.235a.8.8,0,0,0,.206-.578.887.887,0,0,0-.393-.542.809.809,0,0,0-.6-.217.793.793,0,0,0-.491.335c-.024.031-.051.068-.08.111s-.061.093-.093.148Zm.22.169,1.458,1.123a2.284,2.284,0,0,0,.243-.271.814.814,0,0,0,.2-.657,1.032,1.032,0,0,0-.429-.606.952.952,0,0,0-.682-.246.969.969,0,0,0-.617.43Q2684.28,1385.688,2684.2,1385.8Z" transform="translate(-2623.444 -1369.309)" fill="#fff"/>
        <path id="Tracé_87" data-name="Tracé 87" d="M2703.825,1365.532l.287.173.234.137a.118.118,0,0,0,.146-.033l.289-.267.136.072q-.231.36-.5.8-.281.46-.492.825l-.139-.067.117-.411a.1.1,0,0,0-.038-.121c-.069-.044-.147-.093-.233-.147l-.287-.176-2.1-1.276-.24-.145-.2-.116a.1.1,0,0,0-.125.01l-.317.29-.139-.074q.233-.359.5-.8t.489-.827l.142.068-.117.411a.1.1,0,0,0,.037.116l.2.128.234.145Z" transform="translate(-2639.545 -1352.134)" fill="#fff"/>
        <path id="Tracé_88" data-name="Tracé 88" d="M2710.387,1340.419l.334-.7q.321-.676.654-1.407l.032-.009.844.612-.049.161-.76-.143-.511,1.076,1.477.7.071-.15q.115-.242.241-.523a.107.107,0,0,0-.03-.13l-.334-.281.079-.187q.4.2.6.295t.6.274l-.073.19-.441-.083a.1.1,0,0,0-.119.05c-.093.187-.179.363-.256.526l-.07.148.954.452q.306.145.609.282l.527-1.112-.565-.7.056-.182,1.008.56.01.029q-.337.688-.648,1.345l-.35.737q-.171.358-.343.743l-.146-.052.074-.422a.1.1,0,0,0-.05-.116l-.248-.122-.3-.146-2.216-1.052c-.092-.044-.177-.084-.253-.119l-.21-.095a.1.1,0,0,0-.124.023l-.285.321-.146-.059Q2710.22,1340.77,2710.387,1340.419Z" transform="translate(-2648.013 -1330.452)" fill="#fff"/>
        <path id="Tracé_89" data-name="Tracé 89" d="M2725.96,1307.8a.1.1,0,0,0,.126-.041l.22-.344.155.039q-.133.394-.213.65c-.052.168-.119.39-.2.664l-.152-.031.014-.428a.1.1,0,0,0-.066-.108c-.158-.053-.351-.116-.583-.189l-2.342-.732c-.2-.061-.359-.109-.489-.146a.1.1,0,0,0-.119.04l-.238.358-.152-.038q.14-.408.209-.628.089-.288.159-.55l3.057-1.189c.123-.048.251-.1.387-.144-.137-.038-.268-.077-.393-.116l-1.53-.478q-.285-.089-.493-.147a.1.1,0,0,0-.112.049l-.22.344-.159-.04q.138-.4.217-.654t.193-.659l.155.032-.011.435a.1.1,0,0,0,.075.1c.127.046.289.1.484.161l3.264,1.02-.073.348-3.623,1.409q-.165.062-.389.14c.146.042.28.081.4.119l1.859.581Q2725.732,1307.736,2725.96,1307.8Z" transform="translate(-2658.301 -1300.178)" fill="#fff"/>
        <path id="Tracé_90" data-name="Tracé 90" d="M2733.772,1280.989a1.18,1.18,0,0,0-.148.409.828.828,0,0,0,.095.577.664.664,0,0,0,.766.286.849.849,0,0,0,.261-.155,1.5,1.5,0,0,0,.226-.247q.106-.142.213-.3c.08-.114.166-.227.257-.34a1.612,1.612,0,0,1,.307-.294,1.151,1.151,0,0,1,.385-.182,1.282,1.282,0,0,1,1.39.62,2,2,0,0,1,.142,1.286,3.537,3.537,0,0,1-.358,1.054l-.03.013-1.065-.348v-.193l.968-.069a1.168,1.168,0,0,0,.183-.468.953.953,0,0,0-.089-.654.657.657,0,0,0-.484-.325.634.634,0,0,0-.326.019.828.828,0,0,0-.264.158,1.54,1.54,0,0,0-.229.251q-.106.144-.214.3-.123.17-.254.337a1.485,1.485,0,0,1-.3.289,1.147,1.147,0,0,1-.382.178,1.164,1.164,0,0,1-.5.009,1.121,1.121,0,0,1-.846-.6,1.849,1.849,0,0,1-.146-1.208,4.438,4.438,0,0,1,.314-1l.031-.014.945.352v.172Z" transform="translate(-2668.131 -1280.383)" fill="#fff"/>
      </g>
      <g id="Groupe_32" data-name="Groupe 32" transform="translate(7.548 7.678)">
        <path id="Tracé_91" data-name="Tracé 91" d="M2239.386,1201.079a1.685,1.685,0,0,1,.65-1.143,1.643,1.643,0,0,1,1.289-.3,1.684,1.684,0,0,1,1.157.664,1.663,1.663,0,0,1,.3,1.286,1.65,1.65,0,0,1-1.968,1.468,1.659,1.659,0,0,1-1.146-.654A1.719,1.719,0,0,1,2239.386,1201.079Z" transform="translate(-2239.359 -1168.012)" fill="#fff"/>
        <path id="Tracé_92" data-name="Tracé 92" d="M2248.188,1104.586q.357.191.642.34t.521.267a.248.248,0,0,0,.306-.013l.534-.511.308.141q-.371.652-.895,1.629-.557,1.043-.977,1.869l-.314-.129.207-.917a.225.225,0,0,0-.1-.26q-.235-.133-.528-.294t-.651-.352l-4.749-2.54c-.2-.107-.38-.2-.544-.287s-.314-.162-.452-.23a.219.219,0,0,0-.273.038l-.66.674-.313-.145q.47-.822.939-1.7.1-.185.236-.464l.336-.679q.179-.364.3-.608t.2-.382a4.722,4.722,0,0,1,1.741-2.023,1.914,1.914,0,0,1,1.905.035,2.409,2.409,0,0,1,1.183,1.234,3.357,3.357,0,0,1,.1,1.822q1.007-.106,1.61-.131t1.195-.062q.59-.036,1.05-.078a3.888,3.888,0,0,0,.761-.133,2.783,2.783,0,0,0,.265-.123,1.581,1.581,0,0,0,.223-.145,1.793,1.793,0,0,0,.2-.186c.066-.07.135-.149.208-.238l.317.139a10.72,10.72,0,0,1-.631,1.38,3.482,3.482,0,0,1-.523.793,1.566,1.566,0,0,1-.447.305,2.661,2.661,0,0,1-.83.2q-.467.045-1.04.068t-1.206.033q-.634.01-1.27.053l-.3.025a.6.6,0,0,0-.194.042.456.456,0,0,0-.13.084.728.728,0,0,0-.111.143l-.14.247Zm-2.509-1.342q.187-.306.324-.562a1.828,1.828,0,0,0,.236-1.468,2.171,2.171,0,0,0-1.121-1.106,2.066,2.066,0,0,0-1.48-.305,1.754,1.754,0,0,0-1.032.962q-.073.137-.146.3c-.049.109-.1.234-.154.374Z" transform="translate(-2240.129 -1079.973)" fill="#fff"/>
        <path id="Tracé_93" data-name="Tracé 93" d="M2330.407,1097.642a1.058,1.058,0,0,1,.714-.389,1,1,0,0,1,.772.268,1.024,1.024,0,0,1,.113,1.5,1.052,1.052,0,0,1-.732.4,1.033,1.033,0,0,1-.773-.273,1.009,1.009,0,0,1-.382-.721A1.073,1.073,0,0,1,2330.407,1097.642Z" transform="translate(-2317.818 -1079.517)" fill="#fff"/>
        <path id="Tracé_94" data-name="Tracé 94" d="M2340.468,980.331q.839-.408,1.5-.755.593-.31,1.383-.753l.2.287-.7.662a.217.217,0,0,0-.041.273q.194.4.507,1l2.494,4.775q.369.707.634,1.186a.223.223,0,0,0,.259.1l.894-.185.18.287q-.866.429-1.908.974-1.013.529-1.686.9L2344,988.8l.58-.569a.233.233,0,0,0,.037-.294q-.227-.477-.6-1.183l-2-3.834q-.163-.311-.6-1.2.064.622.125,1.292l.666,7.086-.515.329-5.239-4.484q-.458-.379-.986-.865.456.845.6,1.114L2338,989.9q.37.707.626,1.168a.232.232,0,0,0,.268.134l.768-.134.174.29q-.716.351-1.238.623t-1.338.722l-.187-.284.687-.641a.222.222,0,0,0,.064-.27q-.241-.492-.61-1.2l-2.494-4.774q-.312-.6-.531-.988a.219.219,0,0,0-.247-.123l-.925.186-.178-.3q1.007-.5,1.5-.755.683-.357,1.383-.753l4.847,4.186q.315.269.583.519-.04-.368-.086-.778Z" transform="translate(-2320.174 -977.14)" fill="#fff"/>
        <path id="Tracé_95" data-name="Tracé 95" d="M2438.685,976.361q.076.4.142.723t.122.582q.04.171.271.189l.861.076.083.328q-.926.157-2.048.372-1.161.223-2.067.417l-.1-.326.842-.416a.224.224,0,0,0,.14-.24c-.03-.178-.064-.376-.1-.6s-.085-.462-.136-.727l-1.015-5.29c-.042-.221-.082-.422-.119-.6s-.072-.346-.106-.5a.219.219,0,0,0-.2-.188l-.939-.088-.084-.335q.927-.15,2.049-.366,1.155-.221,2.066-.424l.1.332-.843.416a.212.212,0,0,0-.134.232c.026.16.056.332.089.516s.069.382.11.595Z" transform="translate(-2407.822 -968.608)" fill="#fff"/>
        <path id="Tracé_96" data-name="Tracé 96" d="M2491.736,969.211l-.374.044-.426-1.961a3.817,3.817,0,0,0-1.146-.221,2.7,2.7,0,0,0-2.359,1.014,4.847,4.847,0,0,0-.948,2.89,4.644,4.644,0,0,0,.824,3.122,3.3,3.3,0,0,0,2.619,1.268,5.854,5.854,0,0,0,2.022-.295l.07.389a5.307,5.307,0,0,1-3.093.781,4.891,4.891,0,0,1-3.508-1.49,5.227,5.227,0,0,1,.454-7.164,5.586,5.586,0,0,1,3.956-1.176,11.172,11.172,0,0,1,2.418.386l.037.07Z" transform="translate(-2451.027 -966.404)" fill="#fff"/>
        <path id="Tracé_97" data-name="Tracé 97" d="M2548.426,978.064l-.919,2.333q-.292.742-.476,1.244a.228.228,0,0,0,.077.284l.643.507-.1.322q-.772-.326-1.835-.745-1.088-.428-1.969-.754l.092-.327.934.1a.223.223,0,0,0,.247-.128q.212-.5.5-1.246l1.974-5.012q.248-.629.4-1.049a.218.218,0,0,0-.069-.267l-.746-.577.107-.328q.864.369,1.927.788,1.094.431,1.872.708l-.089.336-.832-.081a.214.214,0,0,0-.241.131q-.191.448-.431,1.058l-.8,2.037,3.748,1.476.8-2.037q.24-.61.406-1.068a.214.214,0,0,0-.087-.26l-.651-.5.107-.328q.789.34,1.877.768,1.062.418,1.927.73l-.095.333-.952-.092a.229.229,0,0,0-.239.146q-.176.41-.423,1.039l-1.974,5.011q-.292.742-.48,1.256a.234.234,0,0,0,.1.264l.726.555-.105.322q-.891-.373-1.979-.8-1.063-.419-1.824-.7l.092-.327.841.077a.229.229,0,0,0,.25-.156q.208-.492.5-1.234l.919-2.333Z" transform="translate(-2502.581 -971.606)" fill="#fff"/>
        <path id="Tracé_98" data-name="Tracé 98" d="M2637.974,1036.722a5.177,5.177,0,0,1-3.557,1.843,5.1,5.1,0,0,1-3.792-1.543,4.5,4.5,0,0,1-.339-6.916,4.952,4.952,0,0,1,3.521-1.794,5.233,5.233,0,0,1,3.746,1.583,4.942,4.942,0,0,1,1.822,3.4A4.679,4.679,0,0,1,2637.974,1036.722Zm-5.862-5.247a6.182,6.182,0,0,0-1.7,2.933,2.383,2.383,0,0,0,.807,2.292,2.27,2.27,0,0,0,2.22.622,6.227,6.227,0,0,0,2.7-1.963,6.107,6.107,0,0,0,1.656-2.85,2.385,2.385,0,0,0-.845-2.3,2.252,2.252,0,0,0-2.233-.629A6.131,6.131,0,0,0,2632.113,1031.475Z" transform="translate(-2576.052 -1019.921)" fill="#fff"/>
        <path id="Tracé_99" data-name="Tracé 99" d="M2689.906,1086.3q.4.848.925,1.865.536,1.047.973,1.84l-.291.188-.623-.668a.211.211,0,0,0-.261-.064q-.22.1-.47.23c-.168.083-.347.174-.54.273l-3.314,1.7a4.3,4.3,0,0,0-2.017,1.657,2.146,2.146,0,0,0,.191,1.922,2.233,2.233,0,0,0,1.5,1.292,3.826,3.826,0,0,0,2.435-.561l3.392-1.739q.289-.148.535-.282l.46-.251a.21.21,0,0,0,.1-.249l-.172-.854.31-.181q.385.812.685,1.4.278.541.72,1.347l-.291.187-.654-.7a.219.219,0,0,0-.275-.049q-.208.1-.456.222t-.549.277l-3.055,1.566a4.766,4.766,0,0,1-3.4.67,3.647,3.647,0,0,1-2.168-2.014,4.239,4.239,0,0,1-.539-3.164,4.16,4.16,0,0,1,2.3-2.285l3.32-1.7c.2-.1.382-.2.545-.283s.312-.166.447-.24a.218.218,0,0,0,.124-.246l-.178-.927Z" transform="translate(-2622.823 -1070.05)" fill="#fff"/>
        <path id="Tracé_100" data-name="Tracé 100" d="M2743.02,1203.043a1.686,1.686,0,0,1-.324,1.275,1.644,1.644,0,0,1-1.165.627,1.682,1.682,0,0,1-1.292-.334,1.664,1.664,0,0,1-.627-1.161,1.649,1.649,0,0,1,1.509-1.936,1.658,1.658,0,0,1,1.279.328A1.718,1.718,0,0,1,2743.02,1203.043Z" transform="translate(-2671.807 -1169.641)" fill="#fff"/>
      </g>
      <g id="Groupe_33" data-name="Groupe 33" transform="translate(36.047 65.527)">
        <path id="Tracé_101" data-name="Tracé 101" d="M2450.007,1397.494a.2.2,0,0,0,.121-.038.184.184,0,0,0,.052-.155V1395c-.032,0-.071,0-.114.007a.805.805,0,0,0-.127.024.455.455,0,0,0-.114.048.168.168,0,0,0-.072.086h-.083v-.869h.083a.087.087,0,0,0,.062.086.324.324,0,0,0,.117.024.282.282,0,0,0,.2-.072.23.23,0,0,0,.079-.176q0-.1-.045-.124a.353.353,0,0,0-.121-.041v-.083h1.117v.083a.378.378,0,0,0-.138.048.113.113,0,0,0-.055.1v3.159a.177.177,0,0,0,.055.155.212.212,0,0,0,.124.038v.083h-1.138Z" transform="translate(-2449.669 -1393.824)" fill="#fff"/>
        <path id="Tracé_102" data-name="Tracé 102" d="M2474.87,1396.507l.083.041a.425.425,0,0,0,.01.083.2.2,0,0,0,.038.083.6.6,0,0,0,.186.155,1.312,1.312,0,0,0,.252.107,1.576,1.576,0,0,0,.272.059,1.977,1.977,0,0,0,.249.017,1.024,1.024,0,0,0,1.145-1.083,5.21,5.21,0,0,1-.58.248,1.789,1.789,0,0,1-.607.1,2.207,2.207,0,0,1-.51-.062,1.573,1.573,0,0,1-.472-.193,1.1,1.1,0,0,1-.345-.338.891.891,0,0,1-.134-.5,1.108,1.108,0,0,1,.155-.6,1.326,1.326,0,0,1,.4-.41,1.8,1.8,0,0,1,.555-.238,2.538,2.538,0,0,1,.611-.076,1.827,1.827,0,0,1,.693.128,1.581,1.581,0,0,1,.893.907,1.9,1.9,0,0,1,.124.7,2.22,2.22,0,0,1-.141.811,1.768,1.768,0,0,1-.4.621,1.739,1.739,0,0,1-.624.393,2.308,2.308,0,0,1-.81.134,2.675,2.675,0,0,1-.528-.044,1.749,1.749,0,0,1-.362-.111q-.145-.066-.235-.117a.317.317,0,0,0-.145-.052.212.212,0,0,0-.131.041l-.055-.048Zm1.248-2.007a1.687,1.687,0,0,0-.324.031.894.894,0,0,0-.283.1.547.547,0,0,0-.2.193.659.659,0,0,0,0,.6.544.544,0,0,0,.2.193.9.9,0,0,0,.283.1,1.711,1.711,0,0,0,.648,0,.9.9,0,0,0,.282-.1.544.544,0,0,0,.2-.193.657.657,0,0,0,0-.6.547.547,0,0,0-.2-.193.9.9,0,0,0-.282-.1A1.692,1.692,0,0,0,2476.118,1394.5Z" transform="translate(-2471.097 -1393.824)" fill="#fff"/>
        <path id="Tracé_103" data-name="Tracé 103" d="M2505.6,1395.84a.3.3,0,0,1,0,.034.2.2,0,0,0,0,.042.278.278,0,0,0,.114.193,1.237,1.237,0,0,0,.29.19,2.008,2.008,0,0,0,.4.141,1.726,1.726,0,0,0,.759.024,1.01,1.01,0,0,0,.3-.107.654.654,0,0,0,.228-.207.561.561,0,0,0,.09-.324.538.538,0,0,0-.093-.328.681.681,0,0,0-.234-.2,1.044,1.044,0,0,0-.314-.107,1.869,1.869,0,0,0-.331-.031q-.069,0-.207.014a1.664,1.664,0,0,0-.276.052.9.9,0,0,0-.238.1.189.189,0,0,0-.1.166.135.135,0,0,0,.021.069l-.042.055-.855-.842a1.238,1.238,0,0,0,.114-.093.137.137,0,0,0,.031-.1v-.952c0-.083-.044-.124-.131-.124v-.083h2.834a.471.471,0,0,0,.142-.021.1.1,0,0,0,.066-.1h.083v.931h-.083c0-.078-.022-.126-.066-.145a.365.365,0,0,0-.142-.028h-2.069v.752a3.491,3.491,0,0,1,.521-.148,2.77,2.77,0,0,1,.548-.052,2.4,2.4,0,0,1,.548.066,1.672,1.672,0,0,1,.511.21,1.207,1.207,0,0,1,.376.369.963.963,0,0,1,.145.535,1.057,1.057,0,0,1-.169.607,1.339,1.339,0,0,1-.431.4,1.745,1.745,0,0,1-.579.214,3.371,3.371,0,0,1-.614.059,2.474,2.474,0,0,1-.645-.072,2.207,2.207,0,0,1-.459-.176,1.873,1.873,0,0,1-.317-.2.234.234,0,0,0-.138-.073l-.041,0-.062.01-.083-.069.545-.717Z" transform="translate(-2497.496 -1393.295)" fill="#fff"/>
        <path id="Tracé_104" data-name="Tracé 104" d="M2539.693,1397.666h-.083c0-.051-.022-.078-.066-.083a1.314,1.314,0,0,0-.142-.007h-2.9a.6.6,0,0,0-.124.01c-.032.007-.048.031-.048.072h-.083v-.248a1.071,1.071,0,0,1,.183-.628,1.94,1.94,0,0,1,.459-.462,3.781,3.781,0,0,1,.593-.352q.318-.152.593-.3a2.515,2.515,0,0,0,.459-.307.48.48,0,0,0,.183-.373.4.4,0,0,0-.066-.238.511.511,0,0,0-.169-.152.7.7,0,0,0-.228-.079,1.441,1.441,0,0,0-.241-.021,1.279,1.279,0,0,0-.29.041,1.43,1.43,0,0,0-.331.124,1.091,1.091,0,0,0-.272.2.356.356,0,0,0-.114.259.308.308,0,0,0,.017.089.147.147,0,0,0,.045.076l-.069.048-.71-.759.069-.048.055.027a.137.137,0,0,0,.063.014c.027,0,.078-.034.151-.1a2.163,2.163,0,0,1,.3-.228,2.379,2.379,0,0,1,.483-.228,2.055,2.055,0,0,1,.69-.1,2.128,2.128,0,0,1,.514.062,1.364,1.364,0,0,1,.448.2,1.031,1.031,0,0,1,.317.345,1.015,1.015,0,0,1,.121.514,1.057,1.057,0,0,1-.124.538,1.172,1.172,0,0,1-.328.362,2.136,2.136,0,0,1-.459.252c-.169.069-.344.137-.521.2s-.347.137-.51.21a1.592,1.592,0,0,0-.431.283v.069h2.276a.361.361,0,0,0,.142-.028c.043-.018.066-.074.066-.166h.083Z" transform="translate(-2524.512 -1393.824)" fill="#fff"/>
      </g>
      <g id="Groupe_34" data-name="Groupe 34" transform="translate(29.577 28.602)">
        <path id="Tracé_105" data-name="Tracé 105" d="M2415.674,1144.852l-10.12-20.218v18.138a1.764,1.764,0,0,0,.23,1.031,1.6,1.6,0,0,0,.9.485v.564h-4.755v-.564a1.64,1.64,0,0,0,.9-.476,1.771,1.771,0,0,0,.229-1.039v-19.886a1.819,1.819,0,0,0-.229-1.049,1.539,1.539,0,0,0-.9-.467v-.563h6.221v.563q-.861.3-.861.74a5.687,5.687,0,0,0,.579,1.356l8.01,15.85,8.046-15.991a3.285,3.285,0,0,0,.425-1.2q0-.458-.864-.758v-.563h6.291v.563a1.639,1.639,0,0,0-.9.476,1.762,1.762,0,0,0-.229,1.039v19.886a1.77,1.77,0,0,0,.229,1.031,1.606,1.606,0,0,0,.9.484v.564h-5.019v-.564a1.6,1.6,0,0,0,.907-.476,1.819,1.819,0,0,0,.221-1.04v-18.138Z" transform="translate(-2401.926 -1120.808)" fill="#fff"/>
      </g>
      <g id="Groupe_35" data-name="Groupe 35" transform="translate(29.563 57.04)">
        <path id="Tracé_106" data-name="Tracé 106" d="M2404.471,1337.014l-1.918-4.619v4.066a.577.577,0,0,0,.052.286.359.359,0,0,0,.205.135v.132h-.994v-.132a.357.357,0,0,0,.205-.135.577.577,0,0,0,.052-.286v-4.373a.575.575,0,0,0-.052-.289.362.362,0,0,0-.205-.132v-.132h1.369v.132c-.135.049-.2.121-.2.215a1.291,1.291,0,0,0,.1.308l1.426,3.5,1.434-3.5a1.1,1.1,0,0,0,.1-.308c0-.095-.068-.166-.2-.215v-.132h1.381v.132a.356.356,0,0,0-.205.135.577.577,0,0,0-.052.286v4.373a.577.577,0,0,0,.052.286.356.356,0,0,0,.205.135v.132h-1.091v-.132a.354.354,0,0,0,.205-.135.574.574,0,0,0,.053-.286V1332.4Z" transform="translate(-2401.817 -1331.418)" fill="#fff"/>
        <path id="Tracé_107" data-name="Tracé 107" d="M2449.092,1335.473h-2.365l-.34.92a.827.827,0,0,0-.064.255q0,.166.21.235v.132h-1.111v-.132a.41.41,0,0,0,.251-.154,2,2,0,0,0,.216-.458l1.493-3.943a1.569,1.569,0,0,0,.125-.45c0-.114-.067-.184-.2-.21v-.132h1.308v.132q-.2.054-.2.21a2.443,2.443,0,0,0,.161.524l1.433,3.791a2.454,2.454,0,0,0,.25.519.414.414,0,0,0,.266.171v.132h-1.173v-.132q.188-.049.188-.166a1.466,1.466,0,0,0-.1-.323Zm-.188-.533-.985-2.686-1,2.686Z" transform="translate(-2439.513 -1331.418)" fill="#fff"/>
        <path id="Tracé_108" data-name="Tracé 108" d="M2487.3,1334.534v1.927a.577.577,0,0,0,.052.286.358.358,0,0,0,.205.135v.132h-1.091v-.132a.346.346,0,0,0,.207-.135.589.589,0,0,0,.051-.286v-4.373a.572.572,0,0,0-.053-.289.359.359,0,0,0-.205-.132v-.132h2.677a2.908,2.908,0,0,1,.743.078,1.251,1.251,0,0,1,.5.264,1.463,1.463,0,0,1,.467,1.174,1.439,1.439,0,0,1-.326,1,1.459,1.459,0,0,1-.958.438l1.131,2.182a.429.429,0,0,0,.118.152.549.549,0,0,0,.208.063v.132h-1.116v-.132c.105-.026.157-.067.157-.122a.691.691,0,0,0-.093-.235l-1.037-1.991Zm0-.533h1.715a3.89,3.89,0,0,0,.621-.036.9.9,0,0,0,.352-.135.838.838,0,0,0,.318-.749.971.971,0,0,0-.3-.773,1.414,1.414,0,0,0-.929-.24h-1.78Z" transform="translate(-2474.997 -1331.418)" fill="#fff"/>
        <path id="Tracé_109" data-name="Tracé 109" d="M2527.356,1335.473h-2.365l-.34.92a.827.827,0,0,0-.064.255q0,.166.21.235v.132h-1.111v-.132a.409.409,0,0,0,.251-.154,1.972,1.972,0,0,0,.216-.458l1.493-3.943a1.572,1.572,0,0,0,.125-.45q0-.171-.2-.21v-.132h1.308v.132q-.2.054-.2.21a2.435,2.435,0,0,0,.161.524l1.433,3.791a2.43,2.43,0,0,0,.25.519.412.412,0,0,0,.266.171v.132h-1.173v-.132c.125-.033.188-.088.188-.166a1.5,1.5,0,0,0-.1-.323Zm-.188-.533-.985-2.686-1,2.686Z" transform="translate(-2507.172 -1331.418)" fill="#fff"/>
        <path id="Tracé_110" data-name="Tracé 110" d="M2564.989,1336.461v-4.373a.575.575,0,0,0-.052-.289.36.36,0,0,0-.205-.132v-.132h1.091v.132a.362.362,0,0,0-.205.132.575.575,0,0,0-.052.289v4.373a.577.577,0,0,0,.052.286.357.357,0,0,0,.205.135v.132h-1.091v-.132a.355.355,0,0,0,.205-.135A.577.577,0,0,0,2564.989,1336.461Z" transform="translate(-2542.654 -1331.418)" fill="#fff"/>
        <path id="Tracé_111" data-name="Tracé 111" d="M2582.839,1331.07l-.443,1.067-.1-.059a1.753,1.753,0,0,0,.021-.2c0-.078-.088-.173-.262-.284a2.423,2.423,0,0,0-1.353-.362,1.959,1.959,0,0,0-1.086.289.926.926,0,0,0-.447.817.8.8,0,0,0,.113.423.623.623,0,0,0,.3.266,1.5,1.5,0,0,0,.411.1q.221.024.95.059a5.631,5.631,0,0,1,.919.093,1.506,1.506,0,0,1,.534.22,1.084,1.084,0,0,1,.375.467,1.624,1.624,0,0,1,.136.668,1.528,1.528,0,0,1-.511,1.208,2.387,2.387,0,0,1-1.626.533,3.262,3.262,0,0,1-1.049-.186,4.134,4.134,0,0,1-1.02-.509.194.194,0,0,0-.1-.049c-.04,0-.1.057-.181.171l-.093-.073.511-1.042.1.069c-.009.039-.014.065-.017.078a.52.52,0,0,0-.02.127q0,.137.41.4a2.622,2.622,0,0,0,1.437.445,2.087,2.087,0,0,0,1.131-.284,1.03,1.03,0,0,0,.476-.856.815.815,0,0,0-.109-.421.614.614,0,0,0-.286-.264,1.512,1.512,0,0,0-.368-.1q-.2-.029-.767-.054-.664-.034-.95-.081a2.184,2.184,0,0,1-.54-.159,1.15,1.15,0,0,1-.52-.46,1.6,1.6,0,0,1,.391-2.011,2.437,2.437,0,0,1,1.525-.46,3.558,3.558,0,0,1,1.7.46.726.726,0,0,0,.149.063q.064,0,.153-.181Z" transform="translate(-2554.415 -1330.669)" fill="#fff"/>
      </g>
      <path id="Tracé_112" data-name="Tracé 112" d="M2198.755,924.283a45.171,45.171,0,0,1,42.565-11.849,42.726,42.726,0,0,0-55.611,53.116A45.229,45.229,0,0,1,2198.755,924.283Z" transform="translate(-2183.662 -909.744)" fill="#fff"/>
      <path id="Tracé_113" data-name="Tracé 113" d="M2458.318,1190.267a45.172,45.172,0,0,0,12.825-42.282,42.726,42.726,0,0,1-54.382,54.375A45.229,45.229,0,0,0,2458.318,1190.267Z" transform="translate(-2385.174 -1115.701)" fill="#fff"/>
    </g>
    <path id="Tracé_114" data-name="Tracé 114" d="M3326.223,1450.393a1.73,1.73,0,0,0-.635-.114,1.23,1.23,0,0,0-.82.283.982.982,0,0,0-.225,1.192,1.227,1.227,0,0,0,.292.342,2.223,2.223,0,0,0,.417.27q.236.119.487.238.279.133.562.29a2.421,2.421,0,0,1,.507.374,1.719,1.719,0,0,1,.363.518,1.9,1.9,0,0,1-.56,2.188,2.975,2.975,0,0,1-1.845.53,5.263,5.263,0,0,1-1.631-.26l-.028-.041.242-1.644.283-.046.343,1.4a1.736,1.736,0,0,0,.73.151,1.413,1.413,0,0,0,.934-.295.973.973,0,0,0,.354-.788.945.945,0,0,0-.109-.473,1.227,1.227,0,0,0-.3-.347,2.27,2.27,0,0,0-.425-.271q-.238-.119-.493-.238-.279-.137-.558-.288a2.239,2.239,0,0,1-.5-.365,1.709,1.709,0,0,1-.356-.514,1.74,1.74,0,0,1-.137-.724,1.666,1.666,0,0,1,.667-1.388,2.749,2.749,0,0,1,1.731-.516,6.6,6.6,0,0,1,1.539.21l.027.041-.278,1.47-.252.041Z" transform="translate(-985.038 -466.919)" fill="#fff"/>
    <path id="Tracé_115" data-name="Tracé 115" d="M3353.416,1453.566l.876-1.745q.124-.228.2-.388a.668.668,0,0,0,.074-.26c0-.092-.069-.155-.206-.192l-.411-.11-.014-.242c.338.012.692.018,1.064.018q.508,0,1-.018l.022.233-.484.142a.54.54,0,0,0-.253.162,1.731,1.731,0,0,0-.18.271l-1.444,2.672v1.48q0,.274,0,.5t.007.4c0,.079.057.132.16.16l.511.16.014.228c-.394-.009-.847-.014-1.362-.014s-.989,0-1.379.014l-.022-.228.566-.169a.152.152,0,0,0,.124-.141q0-.183.009-.409c0-.151,0-.318,0-.5v-1.37l-1.484-2.658a2.91,2.91,0,0,0-.277-.4.607.607,0,0,0-.285-.176l-.438-.124-.018-.233q.451.018,1.283.018.913,0,1.73-.018l.023.233-.466.114a.355.355,0,0,0-.155.066.142.142,0,0,0-.05.112.569.569,0,0,0,.064.233,3.375,3.375,0,0,0,.178.324Z" transform="translate(-1008.105 -467.589)" fill="#fff"/>
    <path id="Tracé_116" data-name="Tracé 116" d="M3390.512,1456.48a.15.15,0,0,0,.115.16l.584.16.014.237q-.616-.014-1.014-.014c-.261,0-.6,0-1.027.014l-.023-.228.612-.169a.151.151,0,0,0,.123-.141q.009-.37.009-.909v-3.64q0-.457-.009-.758a.148.148,0,0,0-.109-.151l-.612-.178-.014-.233c.426.012.754.018.982.018.3,0,.582-.006.85-.018l3.038,3.8q.182.229.374.484c-.006-.21-.009-.413-.009-.607v-2.379q0-.443-.009-.763a.143.143,0,0,0-.119-.137l-.584-.16-.014-.242q.63.018,1.022.018t1.019-.018l.022.233-.621.178a.147.147,0,0,0-.109.151q-.014.3-.014.758v5.074l-.525.05-3.6-4.508q-.16-.205-.37-.489c.007.225.009.432.009.621v2.891Q3390.5,1456.128,3390.512,1456.48Z" transform="translate(-1042.14 -467.589)" fill="#fff"/>
    <path id="Tracé_117" data-name="Tracé 117" d="M3443.415,1456.848q-.59,0-1.215.014l-.022-.228.611-.169a.15.15,0,0,0,.124-.142q0-.182.007-.409t0-.5v-3.64c0-.152,0-.291,0-.416s0-.239-.007-.342a.148.148,0,0,0-.109-.151l-.613-.178-.013-.233q.639.018,1.224.018.493,0,.945-.023c.3-.015.613-.023.937-.023a3.877,3.877,0,0,1,2.562.728,2.678,2.678,0,0,1,.858,2.163,3.508,3.508,0,0,1-.952,2.624,3.662,3.662,0,0,1-2.678.934c-.317,0-.6,0-.845-.014S3443.71,1456.848,3443.415,1456.848Zm.877-.466a3.32,3.32,0,0,0,.429.053q.21.011.425.011a1.756,1.756,0,0,0,1.507-.7,3.582,3.582,0,0,0,.516-2.128,3.506,3.506,0,0,0-.493-2.067,1.8,1.8,0,0,0-1.552-.673q-.393,0-.832.037Z" transform="translate(-1087.972 -467.413)" fill="#fff"/>
    <path id="Tracé_118" data-name="Tracé 118" d="M3498.789,1455.589c0,.183,0,.349,0,.5s0,.283.007.4q0,.119.155.16l.562.16.014.228c-.423-.009-.893-.014-1.407-.014q-.8,0-1.425.014l-.022-.228.611-.169a.151.151,0,0,0,.124-.141q0-.183.007-.409c0-.151,0-.318,0-.5v-3.64c0-.152,0-.291,0-.416s0-.239-.007-.343a.148.148,0,0,0-.109-.151l-.613-.178-.013-.233c.422.012.892.018,1.406.018q.795,0,1.425-.018l.023.233-.612.169a.143.143,0,0,0-.119.137c0,.11-.005.228-.007.354s0,.263,0,.409Z" transform="translate(-1135.084 -467.589)" fill="#fff"/>
    <path id="Tracé_119" data-name="Tracé 119" d="M3529.059,1451.686l-.251.041-.347-1.311a2.581,2.581,0,0,0-.781-.114,1.821,1.821,0,0,0-1.562.756,3.278,3.278,0,0,0-.553,1.98,3.139,3.139,0,0,0,.65,2.083,2.23,2.23,0,0,0,1.807.776,3.956,3.956,0,0,0,1.357-.26l.059.26a3.585,3.585,0,0,1-2.064.621,3.305,3.305,0,0,1-2.414-.9,3.532,3.532,0,0,1,.089-4.85,3.777,3.777,0,0,1,2.635-.913,7.562,7.562,0,0,1,1.644.187l.027.046Z" transform="translate(-1158.741 -466.919)" fill="#fff"/>
    <path id="Tracé_120" data-name="Tracé 120" d="M3584.78,1465.8a.985.985,0,0,1,.717.276.959.959,0,0,1,.283.719,1.03,1.03,0,0,1-1.74.726.993.993,0,0,1-.279-.726.969.969,0,0,1,.279-.719A1,1,0,0,1,3584.78,1465.8Z" transform="translate(-1210.37 -480.7)" fill="#fff"/>
    <path id="Tracé_121" data-name="Tracé 121" d="M3628.731,1451.644l-.256.037-.319-1.261a2.927,2.927,0,0,0-.9-.123,1.885,1.885,0,0,0-1.6.76,3.4,3.4,0,0,0-.573,2.089,3.572,3.572,0,0,0,.575,2.165,1.89,1.89,0,0,0,1.611.776,3.687,3.687,0,0,0,.53-.041v-1.2q0-.229,0-.416c0-.125,0-.239-.006-.342a.15.15,0,0,0-.114-.151l-.621-.178-.014-.229q.649.014,1.407.014.78,0,1.338-.014l.027.229-.543.151a.149.149,0,0,0-.119.137c0,.122,0,.246-.006.372s0,.262,0,.409v1.439l-.032.032a8.43,8.43,0,0,1-1.868.224,4.021,4.021,0,0,1-2.674-.849,2.926,2.926,0,0,1-1.011-2.37,3.242,3.242,0,0,1,1.011-2.532,3.962,3.962,0,0,1,2.761-.916,7.349,7.349,0,0,1,1.653.187l.032.041Z" transform="translate(-1244.78 -466.919)" fill="#fff"/>
    <path id="Tracé_122" data-name="Tracé 122" d="M3673.472,1450.647h1.154q1.111,0,2.3-.018l.032.037-.283,1.521-.247.037-.292-1.11h-1.768v2.425h.247c.265,0,.549,0,.854-.009a.157.157,0,0,0,.155-.123l.164-.626.3-.014q-.015.662-.014.991t.014.977l-.3.023-.169-.644a.152.152,0,0,0-.142-.128c-.31-.006-.6-.009-.867-.009h-.242v1.567q0,.5.009,1h1.827l.576-1.2.279-.041-.109,1.708-.032.032q-1.137-.014-2.215-.014h-1.21q-.59,0-1.215.014l-.022-.228.612-.169a.152.152,0,0,0,.124-.141q0-.183.007-.409c0-.151,0-.318,0-.5v-3.64c0-.152,0-.291,0-.416s0-.239-.007-.343a.147.147,0,0,0-.109-.151l-.612-.178-.014-.233Q3672.9,1450.647,3673.472,1450.647Z" transform="translate(-1286.873 -467.589)" fill="#fff"/>
    <path id="Tracé_123" data-name="Tracé 123" d="M3717.025,1450.393a1.734,1.734,0,0,0-.635-.114,1.228,1.228,0,0,0-.82.283.983.983,0,0,0-.226,1.192,1.234,1.234,0,0,0,.292.342,2.253,2.253,0,0,0,.418.27q.235.119.486.238.279.133.562.29a2.4,2.4,0,0,1,.507.374,1.712,1.712,0,0,1,.363.518,1.9,1.9,0,0,1-.56,2.188,2.976,2.976,0,0,1-1.845.53,5.262,5.262,0,0,1-1.63-.26l-.028-.041.242-1.644.283-.046.343,1.4a1.736,1.736,0,0,0,.73.151,1.411,1.411,0,0,0,.934-.295.973.973,0,0,0,.354-.788.952.952,0,0,0-.109-.473,1.243,1.243,0,0,0-.3-.347,2.282,2.282,0,0,0-.425-.271q-.237-.119-.493-.238c-.185-.091-.372-.187-.557-.288a2.232,2.232,0,0,1-.5-.365,1.7,1.7,0,0,1-.356-.514,1.732,1.732,0,0,1-.137-.724,1.665,1.665,0,0,1,.667-1.388,2.747,2.747,0,0,1,1.731-.516,6.6,6.6,0,0,1,1.539.21l.027.041-.278,1.47-.251.041Z" transform="translate(-1322.882 -466.919)" fill="#fff"/>
    <path id="Tracé_124" data-name="Tracé 124" d="M3750.287,1457.023q-.8,0-1.535.014l-.022-.228.73-.2a.152.152,0,0,0,.119-.146q.009-.342.009-.882v-4.462h-1.316l-.42,1.215-.255.041-.12-1.708.033-.037q1.123.018,2.15.018h1.275q1.028,0,2.165-.018l.027.037-.3,1.671-.256.041-.3-1.26h-1.319v4.462q0,.539.009.882a.152.152,0,0,0,.124.146l.717.2.014.228Q3751.058,1457.023,3750.287,1457.023Z" transform="translate(-1351.9 -467.589)" fill="#fff"/>
    <path id="Tracé_125" data-name="Tracé 125" d="M3794.521,1455.589c0,.183,0,.349,0,.5s0,.283.006.4c0,.079.055.132.155.16l.562.16.015.228q-.636-.014-1.407-.014-.8,0-1.425.014l-.023-.228.612-.169a.151.151,0,0,0,.124-.141q0-.183.007-.409t0-.5v-3.64c0-.152,0-.291,0-.416s0-.239-.007-.343a.147.147,0,0,0-.109-.151l-.612-.178-.014-.233q.635.018,1.408.018.793,0,1.424-.018l.023.233-.613.169a.143.143,0,0,0-.119.137q-.005.164-.006.354c0,.126,0,.263,0,.409Z" transform="translate(-1390.74 -467.589)" fill="#fff"/>
    <path id="Tracé_126" data-name="Tracé 126" d="M3826.622,1452.728a3.5,3.5,0,0,1-.932,2.542,3.446,3.446,0,0,1-2.594.961,3.042,3.042,0,0,1-3.325-3.293,3.347,3.347,0,0,1,.937-2.5,3.535,3.535,0,0,1,2.589-.92,3.339,3.339,0,0,1,2.457.861A3.16,3.16,0,0,1,3826.622,1452.728Zm-5.316.059a4.172,4.172,0,0,0,.493,2.236,1.608,1.608,0,0,0,1.447.774,1.534,1.534,0,0,0,1.391-.7,4.21,4.21,0,0,0,.45-2.211,4.127,4.127,0,0,0-.475-2.176,1.611,1.611,0,0,0-1.471-.761,1.521,1.521,0,0,0-1.4.705A4.14,4.14,0,0,0,3821.306,1452.787Z" transform="translate(-1414.397 -466.628)" fill="#fff"/>
    <path id="Tracé_127" data-name="Tracé 127" d="M3877.071,1456.48a.149.149,0,0,0,.114.16l.584.16.014.237q-.616-.014-1.014-.014t-1.027.014l-.022-.228.612-.169a.15.15,0,0,0,.122-.141q.01-.37.01-.909v-3.64q0-.457-.01-.758a.147.147,0,0,0-.109-.151l-.612-.178-.014-.233c.426.012.754.018.982.018q.448,0,.849-.018l3.038,3.8q.182.229.375.484c-.007-.21-.009-.413-.009-.607v-2.379q0-.443-.009-.763a.142.142,0,0,0-.119-.137l-.584-.16-.014-.242q.631.018,1.023.018t1.019-.018l.022.233-.621.178a.147.147,0,0,0-.109.151c-.009.2-.014.454-.014.758v5.074l-.525.05-3.6-4.508q-.16-.205-.37-.489c.006.225.008.432.008.621v2.891C3877.061,1455.948,3877.065,1456.245,3877.071,1456.48Z" transform="translate(-1462.764 -467.589)" fill="#fff"/>
    <path id="Tracé_128" data-name="Tracé 128" d="M3945.019,1465.8a.984.984,0,0,1,.717.276.96.96,0,0,1,.284.719.983.983,0,0,1-.284.726.971.971,0,0,1-.717.283.964.964,0,0,1-1.019-1.009.969.969,0,0,1,.279-.719A1,1,0,0,1,3945.019,1465.8Z" transform="translate(-1521.792 -480.7)" fill="#fff"/>
    <path id="Tracé_129" data-name="Tracé 129" d="M3985.806,1451.931v3.613q0,.5.009,1h1.786l.625-1.3.279-.041-.114,1.8-.033.032q-1.127-.014-2.206-.014h-1.132q-.68,0-1.261.014l-.023-.228.566-.169a.152.152,0,0,0,.124-.141c0-.122.005-.258.006-.409s0-.318,0-.5v-3.64c0-.152,0-.291,0-.416s0-.239-.006-.343a.148.148,0,0,0-.11-.151l-.566-.178-.014-.233q.589.018,1.361.018.795,0,1.379-.018l.022.233-.566.169a.143.143,0,0,0-.119.137c0,.11-.005.266-.007.468S3985.806,1451.937,3985.806,1451.931Z" transform="translate(-1556.144 -467.589)" fill="#fff"/>
    <path id="Tracé_130" data-name="Tracé 130" d="M4029.615,1452.728a3.5,3.5,0,0,1-.932,2.542,3.445,3.445,0,0,1-2.594.961,3.042,3.042,0,0,1-3.325-3.293,3.345,3.345,0,0,1,.937-2.5,3.534,3.534,0,0,1,2.589-.92,3.339,3.339,0,0,1,2.457.861A3.162,3.162,0,0,1,4029.615,1452.728Zm-5.316.059a4.177,4.177,0,0,0,.493,2.236,1.609,1.609,0,0,0,1.448.774,1.535,1.535,0,0,0,1.391-.7,4.211,4.211,0,0,0,.45-2.211,4.128,4.128,0,0,0-.475-2.176,1.612,1.612,0,0,0-1.471-.761,1.521,1.521,0,0,0-1.4.705A4.145,4.145,0,0,0,4024.3,1452.787Z" transform="translate(-1589.883 -466.628)" fill="#fff"/>
    <path id="Tracé_131" data-name="Tracé 131" d="M4084.978,1451.686l-.251.041-.347-1.311a2.576,2.576,0,0,0-.78-.114,1.821,1.821,0,0,0-1.562.756,3.277,3.277,0,0,0-.552,1.98,3.137,3.137,0,0,0,.65,2.083,2.23,2.23,0,0,0,1.807.776,3.951,3.951,0,0,0,1.356-.26l.059.26a3.586,3.586,0,0,1-2.064.621,3.3,3.3,0,0,1-2.414-.9,3.532,3.532,0,0,1,.089-4.85,3.776,3.776,0,0,1,2.635-.913,7.563,7.563,0,0,1,1.645.187l.027.046Z" transform="translate(-1639.326 -466.919)" fill="#fff"/>
    <path id="Tracé_132" data-name="Tracé 132" d="M4122.23,1454.355l-.324.854c-.064.167-.113.3-.149.4a.8.8,0,0,0-.052.235.16.16,0,0,0,.042.118.28.28,0,0,0,.128.064l.438.128.013.237q-.661-.014-1.078-.014-.434,0-.992.014l-.022-.228.488-.146a.452.452,0,0,0,.256-.167,1.9,1.9,0,0,0,.182-.354l2.275-5.54.493-.073,1.969,5.554a1.545,1.545,0,0,0,.208.432.529.529,0,0,0,.267.162l.448.132.014.228q-.617-.014-1.242-.014-.826,0-1.613.014l-.022-.228.451-.132a.311.311,0,0,0,.132-.069.165.165,0,0,0,.042-.123.884.884,0,0,0-.045-.24c-.03-.1-.075-.229-.132-.391l-.3-.858Zm.987-2.622q-.083.237-.178.493l-.626,1.654h1.526l-.562-1.649C4123.319,1452.057,4123.266,1451.891,4123.217,1451.733Z" transform="translate(-1674.145 -466.948)" fill="#fff"/>
    <path id="Tracé_133" data-name="Tracé 133" d="M4172.679,1457.023q-.8,0-1.535.014l-.022-.228.73-.2a.152.152,0,0,0,.119-.146q.009-.342.009-.882v-4.462h-1.315l-.421,1.215-.255.041-.12-1.708.032-.037q1.124.018,2.151.018h1.275q1.028,0,2.165-.018l.027.037-.3,1.671-.257.041-.3-1.26h-1.319v4.462q0,.539.009.882a.152.152,0,0,0,.124.146l.717.2.013.228Q4173.452,1457.023,4172.679,1457.023Z" transform="translate(-1717.054 -467.589)" fill="#fff"/>
    <path id="Tracé_134" data-name="Tracé 134" d="M4216.914,1455.589c0,.183,0,.349,0,.5s0,.283.006.4c0,.079.055.132.155.16l.562.16.014.228q-.636-.014-1.407-.014-.8,0-1.425.014l-.022-.228.611-.169a.152.152,0,0,0,.124-.141c0-.122.005-.258.007-.409s0-.318,0-.5v-3.64c0-.152,0-.291,0-.416s0-.239-.007-.343a.148.148,0,0,0-.11-.151l-.611-.178-.014-.233c.422.012.892.018,1.406.018q.795,0,1.425-.018l.023.233-.612.169a.144.144,0,0,0-.119.137c0,.11,0,.228-.006.354s0,.263,0,.409Z" transform="translate(-1755.895 -467.589)" fill="#fff"/>
    <path id="Tracé_135" data-name="Tracé 135" d="M4249.015,1452.728a3.5,3.5,0,0,1-.932,2.542,3.445,3.445,0,0,1-2.594.961,3.042,3.042,0,0,1-3.325-3.293,3.347,3.347,0,0,1,.937-2.5,3.535,3.535,0,0,1,2.589-.92,3.34,3.34,0,0,1,2.458.861A3.162,3.162,0,0,1,4249.015,1452.728Zm-5.316.059a4.172,4.172,0,0,0,.494,2.236,1.608,1.608,0,0,0,1.447.774,1.534,1.534,0,0,0,1.391-.7,4.21,4.21,0,0,0,.45-2.211,4.127,4.127,0,0,0-.475-2.176,1.612,1.612,0,0,0-1.471-.761,1.521,1.521,0,0,0-1.4.705A4.139,4.139,0,0,0,4243.7,1452.787Z" transform="translate(-1779.551 -466.628)" fill="#fff"/>
    <path id="Tracé_136" data-name="Tracé 136" d="M4301.463,1456.48a.15.15,0,0,0,.115.16l.585.16.013.237q-.616-.014-1.014-.014t-1.027.014l-.023-.228.612-.169a.151.151,0,0,0,.123-.141q.009-.37.009-.909v-3.64q0-.457-.009-.758a.147.147,0,0,0-.109-.151l-.612-.178-.014-.233q.64.018.982.018.448,0,.85-.018l3.037,3.8c.122.152.246.313.375.484-.006-.21-.009-.413-.009-.607v-2.379c0-.3,0-.55-.01-.763a.142.142,0,0,0-.119-.137l-.585-.16-.014-.242q.631.018,1.024.018t1.019-.018l.022.233-.621.178a.146.146,0,0,0-.109.151q-.015.3-.014.758v5.074l-.525.05-3.6-4.508c-.106-.137-.23-.3-.37-.489q.009.338.008.621v2.891Q4301.455,1456.128,4301.463,1456.48Z" transform="translate(-1829.646 -467.589)" fill="#fff"/>
    <path id="Tracé_137" data-name="Tracé 137" d="M4369.412,1465.8a.986.986,0,0,1,.717.276.961.961,0,0,1,.282.719.983.983,0,0,1-.282.726.973.973,0,0,1-.717.283.963.963,0,0,1-1.019-1.009.971.971,0,0,1,.278-.719A1.006,1.006,0,0,1,4369.412,1465.8Z" transform="translate(-1888.675 -480.7)" fill="#fff"/>
    <path id="Tracé_138" data-name="Tracé 138" d="M4406.046,1454.749c.059.173.111.341.16.5q.082-.241.174-.5l1.1-2.932q.091-.256.144-.406a.767.767,0,0,0,.052-.238.154.154,0,0,0-.043-.119.3.3,0,0,0-.129-.064l-.436-.124-.013-.242c.44.012.8.018,1.077.018s.618-.006.987-.018l.026.233-.493.142a.479.479,0,0,0-.251.169,1.789,1.789,0,0,0-.182.356l-2.243,5.517-.479.046-1.959-5.508a1.575,1.575,0,0,0-.208-.427.558.558,0,0,0-.268-.167l-.442-.128-.019-.233c.414.012.829.018,1.242.018q.826,0,1.612-.018l.022.233-.447.128a.306.306,0,0,0-.132.069.164.164,0,0,0-.042.123.869.869,0,0,0,.046.24c.029.1.074.231.132.4Z" transform="translate(-1918.248 -467.589)" fill="#fff"/>
    <path id="Tracé_139" data-name="Tracé 139" d="M4453.126,1450.647h1.155q1.11,0,2.3-.018l.031.037-.283,1.521-.246.037-.292-1.11h-1.768v2.425h.245c.267,0,.551,0,.855-.009a.158.158,0,0,0,.155-.123l.164-.626.3-.014c-.01.442-.014.772-.014.991s0,.539.014.977l-.3.023-.169-.644a.153.153,0,0,0-.142-.128q-.466-.009-.868-.009h-.241v1.567q0,.5.009,1h1.827l.575-1.2.278-.041-.109,1.708-.032.032q-1.138-.014-2.215-.014h-1.211q-.587,0-1.214.014l-.023-.228.612-.169a.152.152,0,0,0,.123-.141c0-.122.006-.258.007-.409s0-.318,0-.5v-3.64c0-.152,0-.291,0-.416s0-.239-.007-.343a.147.147,0,0,0-.109-.151l-.612-.178-.014-.233Q4452.551,1450.647,4453.126,1450.647Z" transform="translate(-1960.875 -467.589)" fill="#fff"/>
    <path id="Tracé_140" data-name="Tracé 140" d="M4493.974,1456.48a.15.15,0,0,0,.114.16l.585.16.014.237q-.616-.014-1.014-.014t-1.027.014l-.022-.228.612-.169a.15.15,0,0,0,.123-.141q.01-.37.009-.909v-3.64c0-.3,0-.557-.009-.758a.147.147,0,0,0-.11-.151l-.611-.178-.014-.233q.639.018.982.018.448,0,.849-.018l3.037,3.8q.183.229.375.484-.01-.315-.01-.607v-2.379q0-.443-.01-.763a.141.141,0,0,0-.119-.137l-.584-.16-.014-.242q.629.018,1.022.018t1.02-.018l.021.233-.621.178a.148.148,0,0,0-.109.151q-.013.3-.014.758v5.074l-.525.05-3.6-4.508c-.107-.137-.231-.3-.371-.489q.009.338.009.621v2.891C4493.965,1455.948,4493.969,1456.245,4493.974,1456.48Z" transform="translate(-1996.07 -467.589)" fill="#fff"/>
    <path id="Tracé_141" data-name="Tracé 141" d="M4546.389,1457.023q-.8,0-1.534.014l-.022-.228.729-.2a.152.152,0,0,0,.12-.146q.009-.342.009-.882v-4.462h-1.315l-.42,1.215-.256.041-.119-1.708.032-.037q1.124.018,2.151.018h1.274q1.028,0,2.165-.018l.026.037-.3,1.671-.256.041-.3-1.26h-1.32v4.462q0,.539.009.882a.153.153,0,0,0,.124.146l.717.2.013.228Q4547.162,1457.023,4546.389,1457.023Z" transform="translate(-2040.122 -467.589)" fill="#fff"/>
    <path id="Tracé_142" data-name="Tracé 142" d="M4594.724,1450.647h1.155q1.109,0,2.3-.018l.032.037-.282,1.521-.247.037-.292-1.11h-1.768v2.425h.246q.4,0,.855-.009a.158.158,0,0,0,.155-.123l.164-.626.3-.014c-.01.442-.014.772-.014.991s0,.539.014.977l-.3.023-.168-.644a.153.153,0,0,0-.142-.128q-.465-.009-.868-.009h-.242v1.567q0,.5.009,1h1.827l.575-1.2.279-.041-.109,1.708-.032.032q-1.138-.014-2.215-.014h-1.21q-.59,0-1.215.014l-.023-.228.612-.169a.153.153,0,0,0,.124-.141c0-.122.005-.258.006-.409s0-.318,0-.5v-3.64c0-.152,0-.291,0-.416s0-.239-.006-.343a.148.148,0,0,0-.11-.151l-.612-.178-.014-.233C4593.935,1450.641,4594.34,1450.647,4594.724,1450.647Z" transform="translate(-2083.284 -467.589)" fill="#fff"/>
    <g id="Groupe_37" data-name="Groupe 37" transform="translate(2288.725 922.214)">
      <path id="Tracé_143" data-name="Tracé 143" d="M2970.421,1034.065q0,1.493.013,2.676t.037,2.153q.024.8.573.971l2.588.846.075,1.245q-2.763-.075-6.845-.075-4.356,0-7.766.075l-.125-1.245,3.336-.921a.827.827,0,0,0,.672-.771q.024-1,.037-2.228t.012-2.725v-19.839q0-1.244-.012-2.265t-.037-1.867a.805.805,0,0,0-.6-.821l-3.335-.971-.075-1.27q3.485.1,7.144.1.771,0,1.917-.037t2.788-.087q1.494-.05,2.5-.075t1.581-.025q6.4,0,9.6,2.141a7.046,7.046,0,0,1,3.2,6.248,8.875,8.875,0,0,1-1.954,5.986,12.332,12.332,0,0,1-5.738,3.5q2.091,3.087,3.224,5t2.277,3.771q1.146,1.854,2.079,3.273a14.358,14.358,0,0,0,1.755,2.24,10,10,0,0,0,.859.647,5.767,5.767,0,0,0,.858.473,6.472,6.472,0,0,0,.958.336q.51.137,1.133.261l.1,1.269a39.818,39.818,0,0,1-5.576.349,12.8,12.8,0,0,1-3.485-.324,5.766,5.766,0,0,1-1.767-.921,9.853,9.853,0,0,1-2.1-2.34q-.958-1.443-2.028-3.261t-2.2-3.858q-1.133-2.041-2.377-4.032-.374-.572-.61-.946a2.237,2.237,0,0,0-.473-.56,1.647,1.647,0,0,0-.5-.274,2.66,2.66,0,0,0-.66-.112l-1.045-.025Zm0-10.479q1.319.075,2.39.075,3.535,0,5.177-1.78t1.643-5.563q0-3.659-1.58-5.339a6.459,6.459,0,0,0-4.916-1.68q-.573,0-1.232.05t-1.481.149Z" transform="translate(-2958.971 -1006.211)" fill="#fff"/>
      <path id="Tracé_144" data-name="Tracé 144" d="M3237.905,1212.634a3.894,3.894,0,0,1,2.8,1.058,3.7,3.7,0,0,1,1.108,2.8,3.77,3.77,0,0,1-3.908,3.908,3.872,3.872,0,0,1-2.863-1.1,3.806,3.806,0,0,1-1.095-2.813,3.715,3.715,0,0,1,1.095-2.8A3.948,3.948,0,0,1,3237.905,1212.634Z" transform="translate(-3196.685 -1184.059)" fill="#fff"/>
      <path id="Tracé_145" data-name="Tracé 145" d="M3359.863,1007.827q3.435.1,6.2.1,2.465,0,5.8-.1l.149,1.269-3.41.971a.8.8,0,0,0-.6.821q-.051,1.643-.05,4.132v19.838q0,2.937.05,4.953a.818.818,0,0,0,.672.772l3.236.921.1,1.245q-3.56-.075-7.89-.075-4.206,0-7.044.075l-.124-1.245,2.862-.871a.854.854,0,0,0,.623-.9q.075-1.942.075-4.879v-15.931q0-1.294.075-4.953-.847,2.141-1.792,4.43l-9.907,24.269-2.24.2-9.459-23.572q-.847-2.016-1.742-4.505.049,3.535.05,4.655v15.408q0,2.937.05,4.879a.858.858,0,0,0,.647.9l2.739.871.074,1.245q-2.937-.075-5.1-.075-2.141,0-5.6.075l-.124-1.245,3.335-.921a.82.82,0,0,0,.672-.772q.049-2.016.05-4.953v-19.838q0-2.489-.05-4.132a.805.805,0,0,0-.6-.821l-3.335-.971-.075-1.269q4.131.1,6.2.1,2.839,0,5.8-.1l8.687,21.929q.573,1.419,1.021,2.688.5-1.27,1.045-2.688Z" transform="translate(-3278.145 -1007.006)" fill="#fff"/>
      <path id="Tracé_146" data-name="Tracé 146" d="M3695.131,1034.859q0,1.494.012,2.713t.037,2.19q.025.647.847.871l3.062.871.075,1.245q-3.46-.075-7.667-.075-4.356,0-7.766.075l-.125-1.245,3.335-.921a.826.826,0,0,0,.672-.772q.024-1,.038-2.228t.012-2.725v-19.838q0-1.244-.012-2.265t-.038-1.867a.805.805,0,0,0-.6-.821l-3.335-.971-.075-1.269q3.459.1,7.667.1,4.331,0,7.766-.1l.125,1.269-3.335.921a.779.779,0,0,0-.647.747q-.025.9-.037,1.929t-.012,2.228Z" transform="translate(-3585.41 -1007.006)" fill="#fff"/>
      <path id="Tracé_147" data-name="Tracé 147" d="M3860.113,1013.583l-1.369.224-1.892-7.144a14.048,14.048,0,0,0-4.257-.622,9.926,9.926,0,0,0-8.513,4.119q-3.012,4.12-3.012,10.79,0,7.119,3.547,11.351t9.844,4.231a21.55,21.55,0,0,0,7.393-1.419l.324,1.419a19.545,19.545,0,0,1-11.251,3.385q-8.139,0-13.155-4.9t-5.016-12.919q0-8.537,5.5-13.516t14.362-4.978a41.133,41.133,0,0,1,8.961,1.021l.149.249Z" transform="translate(-3714.349 -1003.353)" fill="#fff"/>
      <path id="Tracé_148" data-name="Tracé 148" d="M4090.235,1025.624v9.235q0,2.937.05,4.9a.842.842,0,0,0,.647.871l2.887.871.075,1.245q-3.086-.075-7.293-.075-4.307,0-7.766.075l-.125-1.245,3.335-.921a.82.82,0,0,0,.672-.772q.051-2.016.05-4.953v-19.838q0-2.489-.05-4.132a.805.805,0,0,0-.6-.821l-3.336-.971-.075-1.269q3.459.1,7.667.1,4.331,0,7.368-.1l.149,1.269-2.962.846a.786.786,0,0,0-.647.771q-.051,1.792-.05,4.207v8.065h14.835v-8.065q0-2.414-.049-4.207a.786.786,0,0,0-.647-.771l-2.913-.846-.074-1.269q3.16.1,7.467.1,4.208,0,7.592-.1l.125,1.269-3.385.971a.844.844,0,0,0-.623.821q-.05,1.643-.049,4.132v19.838q0,2.937.049,4.953a.864.864,0,0,0,.7.772l3.236.921.075,1.245q-3.56-.075-7.865-.075-4.208,0-7.194.075l-.125-1.245,2.987-.871a.842.842,0,0,0,.647-.871q.049-1.966.049-4.9v-9.235Z" transform="translate(-3926.972 -1007.006)" fill="#fff"/>
      <path id="Tracé_149" data-name="Tracé 149" d="M4429.6,1019.264q0,8.613-5.078,13.852t-14.139,5.24q-8.662,0-13.391-4.841t-4.73-13.105q0-8.612,5.1-13.628t14.113-5.016q8.662,0,13.392,4.692T4429.6,1019.264Zm-28.974.323q0,7.966,2.688,12.185a8.771,8.771,0,0,0,7.891,4.219q5.126,0,7.579-3.833t2.451-12.047q0-7.716-2.588-11.861t-8.015-4.144q-5.252,0-7.629,3.846T4400.623,1019.587Z" transform="translate(-4198.032 -1001.765)" fill="#fff"/>
      <path id="Tracé_150" data-name="Tracé 150" d="M4694.971,1007.827q3.46.1,7.667.1,4.332,0,7.667-.1l.125,1.269-3.236.921a.779.779,0,0,0-.647.747q-.024.9-.037,1.929t-.013,2.228v13.715q0,6.8,2.042,9.4t6.621,2.6q4.505,0,6.758-2.75t2.252-8.923v-14.039q0-1.195-.024-2.228t-.049-1.929a.775.775,0,0,0-.647-.747l-3.087-.871-.075-1.319q3.311.1,5.725.1,2.24,0,5.625-.1l.125,1.269-3.385.971a.809.809,0,0,0-.623.821q-.025.846-.037,1.867t-.013,2.265v12.645q0,8.563-3.522,12.284t-10.243,3.721q-7.641,0-11.276-3.547t-3.633-11.363v-13.74q0-1.244-.012-2.265t-.038-1.867a.806.806,0,0,0-.6-.821l-3.336-.971Z" transform="translate(-4459.723 -1007.006)" fill="#fff"/>
    </g>
    <g id="Groupe_38" data-name="Groupe 38" transform="translate(2289.329 964.689)">
      <path id="Tracé_151" data-name="Tracé 151" d="M2967.579,1324.574l-.674,1.777q-.2.523-.309.841a1.659,1.659,0,0,0-.11.49.333.333,0,0,0,.086.247.582.582,0,0,0,.266.133l.913.266.029.494q-1.379-.029-2.243-.029-.9,0-2.062.029l-.047-.475,1.017-.3a.947.947,0,0,0,.533-.347,4.17,4.17,0,0,0,.38-.737l4.733-11.529,1.026-.152,4.1,11.557a3.2,3.2,0,0,0,.432.9,1.1,1.1,0,0,0,.556.337l.931.276.029.475q-1.283-.029-2.585-.029-1.72,0-3.355.029l-.048-.475.941-.276a.656.656,0,0,0,.276-.143.35.35,0,0,0,.085-.257,1.784,1.784,0,0,0-.095-.5q-.095-.309-.275-.813l-.628-1.787Zm2.053-5.455q-.171.494-.37,1.026l-1.3,3.441h3.174l-1.169-3.431Q2969.785,1319.613,2969.632,1319.119Z" transform="translate(-2963.426 -1315.269)" fill="#fff"/>
      <path id="Tracé_152" data-name="Tracé 152" d="M3072.259,1329.764q-1.226,0-2.528.029l-.048-.475,1.273-.352a.313.313,0,0,0,.257-.295q.01-.38.014-.851t.005-1.041V1319.2q0-.475-.005-.865t-.014-.713a.308.308,0,0,0-.228-.314l-1.273-.371-.029-.485q1.33.038,2.547.038,1.027,0,1.968-.048t1.948-.048a8.068,8.068,0,0,1,5.332,1.516,5.574,5.574,0,0,1,1.787,4.5,7.3,7.3,0,0,1-1.982,5.46,7.623,7.623,0,0,1-5.574,1.944q-.989,0-1.759-.029T3072.259,1329.764Zm1.825-.969a6.851,6.851,0,0,0,.893.109q.437.024.884.024a3.656,3.656,0,0,0,3.136-1.454,7.451,7.451,0,0,0,1.074-4.429,7.3,7.3,0,0,0-1.026-4.3,3.738,3.738,0,0,0-3.232-1.4q-.817,0-1.73.076Z" transform="translate(-3055.284 -1316.24)" fill="#fff"/>
      <path id="Tracé_153" data-name="Tracé 153" d="M3193.79,1316.822q1.312.038,2.367.038.941,0,2.215-.038l.057.485-1.3.371a.307.307,0,0,0-.228.314q-.02.627-.02,1.578v7.575q0,1.122.02,1.891a.312.312,0,0,0,.256.295l1.236.351.038.475q-1.359-.028-3.013-.028-1.606,0-2.689.028l-.048-.475,1.093-.333a.327.327,0,0,0,.238-.342q.029-.742.029-1.863v-6.083q0-.494.028-1.891-.323.817-.684,1.692l-3.783,9.267-.855.076-3.612-9q-.323-.77-.666-1.72.019,1.35.019,1.777v5.883q0,1.122.019,1.863a.327.327,0,0,0,.247.342l1.046.333.028.475q-1.122-.028-1.948-.028t-2.138.028l-.048-.475,1.274-.351a.314.314,0,0,0,.257-.295q.019-.77.019-1.891v-7.575q0-.95-.019-1.578a.308.308,0,0,0-.228-.314l-1.274-.371-.028-.485q1.578.038,2.366.038,1.084,0,2.215-.038l3.317,8.373q.219.542.39,1.027.19-.485.4-1.027Z" transform="translate(-3152.114 -1316.603)" fill="#fff"/>
      <path id="Tracé_154" data-name="Tracé 154" d="M3321.806,1327.144q0,.571,0,1.036t.014.836c.007.165.114.276.324.333l1.168.333.029.475q-1.321-.028-2.928-.028-1.663,0-2.965.028l-.047-.475,1.273-.351a.316.316,0,0,0,.257-.295q.01-.38.014-.851t0-1.041v-7.575q0-.475,0-.865t-.014-.713a.308.308,0,0,0-.228-.314l-1.273-.371-.029-.485q1.321.038,2.927.038,1.655,0,2.966-.038l.047.485-1.273.352a.3.3,0,0,0-.248.285q-.01.342-.014.736t0,.851Z" transform="translate(-3269.437 -1316.603)" fill="#fff"/>
      <path id="Tracé_155" data-name="Tracé 155" d="M3374.573,1329a.312.312,0,0,0,.238.333l1.216.333.029.494q-1.283-.028-2.11-.028t-2.138.028l-.048-.475,1.274-.351a.314.314,0,0,0,.256-.295q.019-.77.019-1.891v-7.575q0-.95-.019-1.578a.308.308,0,0,0-.228-.314l-1.274-.371-.029-.485q1.331.038,2.044.038.931,0,1.768-.038l6.32,7.917q.38.475.78,1.007-.02-.656-.02-1.264v-4.952q0-.922-.019-1.587a.3.3,0,0,0-.247-.285l-1.216-.333-.028-.5q1.312.038,2.128.038.836,0,2.12-.038l.047.485-1.292.371a.308.308,0,0,0-.228.314q-.028.627-.029,1.578v10.559l-1.093.1-7.489-9.381q-.333-.428-.77-1.017.019.7.019,1.292v6.016Q3374.554,1328.265,3374.573,1329Z" transform="translate(-3316.426 -1316.603)" fill="#fff"/>
      <path id="Tracé_156" data-name="Tracé 156" d="M3486.485,1327.144q0,.571,0,1.036t.015.836q.01.247.323.333l1.169.333.028.475q-1.321-.028-2.927-.028-1.663,0-2.965.028l-.047-.475,1.273-.351a.314.314,0,0,0,.256-.295c.006-.253.012-.537.015-.851s0-.66,0-1.041v-7.575q0-.475,0-.865c0-.26-.008-.5-.015-.713a.307.307,0,0,0-.228-.314l-1.273-.371-.029-.485q1.321.038,2.927.038,1.654,0,2.965-.038l.047.485-1.273.352a.3.3,0,0,0-.247.285q-.01.342-.015.736t0,.851Z" transform="translate(-3411.8 -1316.603)" fill="#fff"/>
      <path id="Tracé_157" data-name="Tracé 157" d="M3544.887,1316.33a3.6,3.6,0,0,0-1.321-.238,2.554,2.554,0,0,0-1.706.589,2.047,2.047,0,0,0-.471,2.481,2.566,2.566,0,0,0,.608.713,4.634,4.634,0,0,0,.869.561q.49.247,1.012.494.58.276,1.169.6a5,5,0,0,1,1.055.779,3.827,3.827,0,0,1-.409,5.631,6.19,6.19,0,0,1-3.839,1.1,10.958,10.958,0,0,1-3.394-.542l-.057-.086.5-3.421.589-.1.713,2.908a3.611,3.611,0,0,0,1.521.314,2.942,2.942,0,0,0,1.944-.613,2.025,2.025,0,0,0,.736-1.64,1.97,1.97,0,0,0-.228-.984,2.549,2.549,0,0,0-.618-.722,4.749,4.749,0,0,0-.884-.566q-.494-.247-1.026-.494-.58-.285-1.16-.6a4.594,4.594,0,0,1-1.036-.761,3.549,3.549,0,0,1-.741-1.069,3.6,3.6,0,0,1-.285-1.507,3.464,3.464,0,0,1,1.388-2.889,5.72,5.72,0,0,1,3.6-1.074,13.718,13.718,0,0,1,3.2.437l.057.085-.58,3.061-.523.086Z" transform="translate(-3460.489 -1315.208)" fill="#fff"/>
      <path id="Tracé_158" data-name="Tracé 158" d="M3614.106,1330.128q-1.674,0-3.194.028l-.047-.475,1.521-.418a.314.314,0,0,0,.247-.3q.02-.713.02-1.834v-9.286h-2.737l-.875,2.528-.532.086-.247-3.554.066-.076q2.338.038,4.476.038h2.652q2.138,0,4.5-.038l.057.076-.627,3.479-.532.085-.618-2.623h-2.747v9.286q0,1.122.02,1.834a.318.318,0,0,0,.256.3l1.492.418.029.475Q3615.711,1330.128,3614.106,1330.128Z" transform="translate(-3520.878 -1316.603)" fill="#fff"/>
      <path id="Tracé_159" data-name="Tracé 159" d="M3706.124,1326.84q0,.571,0,1.022t.014.822q.01.3.219.371l.988.323.028.475q-1.055-.028-2.614-.028-1.663,0-2.965.028l-.048-.475,1.274-.352a.314.314,0,0,0,.256-.294q.01-.38.014-.851t.005-1.041v-7.575q0-.475-.005-.865t-.014-.713a.306.306,0,0,0-.228-.313l-1.273-.371-.029-.485q1.331.038,2.728.038.3,0,.732-.014l1.064-.033q.57-.019.955-.029t.6-.01a6.642,6.642,0,0,1,3.664.817,2.691,2.691,0,0,1,1.221,2.386,3.387,3.387,0,0,1-.746,2.286,4.707,4.707,0,0,1-2.191,1.335q.8,1.178,1.231,1.91t.87,1.44q.437.708.793,1.25a5.483,5.483,0,0,0,.67.855,3.9,3.9,0,0,0,.328.247,2.215,2.215,0,0,0,.328.18,2.447,2.447,0,0,0,.366.128q.195.052.432.1l.038.485a15.205,15.205,0,0,1-2.129.133,4.887,4.887,0,0,1-1.331-.124,2.2,2.2,0,0,1-.675-.352,3.762,3.762,0,0,1-.8-.893q-.366-.551-.775-1.245t-.841-1.473q-.432-.779-.907-1.54-.143-.218-.233-.361a.837.837,0,0,0-.181-.214.623.623,0,0,0-.19-.1,1.009,1.009,0,0,0-.251-.043l-.4-.01Zm0-4q.5.029.912.029a2.573,2.573,0,0,0,1.977-.679,3.058,3.058,0,0,0,.627-2.125,2.906,2.906,0,0,0-.6-2.038,2.467,2.467,0,0,0-1.877-.642q-.218,0-.47.019t-.565.057Z" transform="translate(-3601.699 -1316.3)" fill="#fff"/>
      <path id="Tracé_160" data-name="Tracé 160" d="M3797.082,1324.574l-.675,1.777q-.2.523-.309.841a1.639,1.639,0,0,0-.109.49.334.334,0,0,0,.085.247.58.58,0,0,0,.266.133l.913.266.028.494q-1.378-.029-2.243-.029-.9,0-2.062.029l-.047-.475,1.017-.3a.943.943,0,0,0,.532-.347,4.137,4.137,0,0,0,.38-.737l4.733-11.529,1.026-.152,4.1,11.557a3.223,3.223,0,0,0,.433.9,1.1,1.1,0,0,0,.556.337l.932.276.029.475q-1.283-.029-2.585-.029-1.72,0-3.355.029l-.048-.475.941-.276a.658.658,0,0,0,.276-.143.35.35,0,0,0,.085-.257,1.8,1.8,0,0,0-.1-.5q-.094-.309-.276-.813l-.627-1.787Zm2.053-5.455q-.171.494-.371,1.026l-1.3,3.441h3.174l-1.169-3.431Q3799.287,1319.613,3799.135,1319.119Z" transform="translate(-3680.521 -1315.269)" fill="#fff"/>
      <path id="Tracé_161" data-name="Tracé 161" d="M3893.738,1330.128q-1.673,0-3.193.028l-.047-.475,1.521-.418a.315.315,0,0,0,.247-.3q.019-.713.019-1.834v-9.286h-2.737l-.875,2.528-.532.086-.248-3.554.067-.076q2.338.038,4.476.038h2.652q2.139,0,4.5-.038l.057.076-.627,3.479-.533.085-.618-2.623h-2.747v9.286q0,1.122.019,1.834a.317.317,0,0,0,.257.3l1.492.418.029.475Q3895.345,1330.128,3893.738,1330.128Z" transform="translate(-3762.617 -1316.603)" fill="#fff"/>
      <path id="Tracé_162" data-name="Tracé 162" d="M3983.914,1316.86h2.4q2.31,0,4.791-.038l.066.076-.589,3.165-.513.076-.608-2.309h-3.678v5.047h.513q.827,0,1.777-.019a.327.327,0,0,0,.323-.257l.342-1.3.627-.029q-.029,1.378-.028,2.063,0,.665.028,2.034l-.627.047-.352-1.34a.316.316,0,0,0-.294-.266q-.97-.019-1.806-.019h-.5v3.26q0,1.046.019,2.072h3.8l1.2-2.5.58-.086-.228,3.555-.067.067q-2.366-.028-4.609-.028h-2.519q-1.225,0-2.528.028l-.047-.475,1.273-.351a.316.316,0,0,0,.257-.295q.009-.38.014-.851t0-1.041v-7.575q0-.475,0-.865t-.014-.713a.309.309,0,0,0-.229-.314l-1.273-.371-.028-.485Q3982.716,1316.86,3983.914,1316.86Z" transform="translate(-3843.44 -1316.603)" fill="#fff"/>
      <path id="Tracé_163" data-name="Tracé 163" d="M4065.27,1316.822q1.321.038,2.927.038,1.654,0,2.927-.038l.048.485-1.236.352a.3.3,0,0,0-.248.285q-.01.342-.014.736t0,.851v5.237a6.048,6.048,0,0,0,.78,3.588,3.019,3.019,0,0,0,2.528.993,3.14,3.14,0,0,0,2.58-1.05,5.379,5.379,0,0,0,.86-3.407v-5.361q0-.456-.01-.851t-.019-.736a.3.3,0,0,0-.247-.285l-1.179-.333-.028-.5q1.264.038,2.186.038.855,0,2.148-.038l.047.485-1.292.371a.31.31,0,0,0-.238.314q-.009.323-.014.713t0,.865v4.828q0,3.27-1.345,4.69a5.131,5.131,0,0,1-3.911,1.421,5.963,5.963,0,0,1-4.306-1.354,5.853,5.853,0,0,1-1.387-4.339v-5.246q0-.475,0-.865t-.014-.713a.309.309,0,0,0-.229-.314l-1.273-.371Z" transform="translate(-3915.957 -1316.603)" fill="#fff"/>
      <path id="Tracé_164" data-name="Tracé 164" d="M4182.35,1326.84q0,.571,0,1.022c0,.3.008.575.015.822q.009.3.219.371l.988.323.028.475q-1.055-.028-2.613-.028-1.664,0-2.966.028l-.047-.475,1.272-.352a.314.314,0,0,0,.257-.294q.01-.38.015-.851t0-1.041v-7.575q0-.475,0-.865t-.015-.713a.306.306,0,0,0-.228-.313l-1.273-.371-.028-.485q1.33.038,2.727.038c.2,0,.44,0,.732-.014l1.064-.033q.57-.019.955-.029t.6-.01a6.642,6.642,0,0,1,3.665.817,2.691,2.691,0,0,1,1.221,2.386,3.387,3.387,0,0,1-.746,2.286,4.7,4.7,0,0,1-2.191,1.335q.8,1.178,1.232,1.91t.869,1.44q.437.708.793,1.25a5.425,5.425,0,0,0,.671.855,3.9,3.9,0,0,0,.327.247,2.172,2.172,0,0,0,.329.18,2.46,2.46,0,0,0,.366.128q.195.052.433.1l.038.485a15.217,15.217,0,0,1-2.129.133,4.889,4.889,0,0,1-1.331-.124,2.2,2.2,0,0,1-.675-.352,3.751,3.751,0,0,1-.8-.893q-.366-.551-.775-1.245t-.841-1.473q-.433-.779-.908-1.54c-.095-.146-.173-.266-.232-.361a.867.867,0,0,0-.181-.214.629.629,0,0,0-.19-.1,1.014,1.014,0,0,0-.252-.043l-.4-.01Zm0-4q.5.029.913.029a2.573,2.573,0,0,0,1.977-.679,3.058,3.058,0,0,0,.627-2.125,2.906,2.906,0,0,0-.6-2.038,2.466,2.466,0,0,0-1.877-.642c-.146,0-.3.006-.47.019s-.356.032-.566.057Z" transform="translate(-4013.393 -1316.3)" fill="#fff"/>
      <path id="Tracé_165" data-name="Tracé 165" d="M4316.2,1329.764q-1.226,0-2.528.029l-.048-.475,1.273-.352a.312.312,0,0,0,.257-.295q.009-.38.014-.851t0-1.041V1319.2q0-.475,0-.865t-.014-.713a.308.308,0,0,0-.228-.314l-1.274-.371-.028-.485q1.329.038,2.547.038,1.027,0,1.968-.048t1.948-.048a8.071,8.071,0,0,1,5.332,1.516,5.574,5.574,0,0,1,1.787,4.5,7.3,7.3,0,0,1-1.981,5.46,7.626,7.626,0,0,1-5.575,1.944q-.988,0-1.758-.029C4317.376,1329.774,4316.811,1329.764,4316.2,1329.764Zm1.825-.969a6.833,6.833,0,0,0,.893.109q.437.024.884.024a3.659,3.659,0,0,0,3.137-1.454,7.459,7.459,0,0,0,1.073-4.429,7.3,7.3,0,0,0-1.027-4.3,3.736,3.736,0,0,0-3.231-1.4q-.817,0-1.729.076Z" transform="translate(-4130.654 -1316.24)" fill="#fff"/>
      <path id="Tracé_166" data-name="Tracé 166" d="M4429.561,1316.86h2.4q2.309,0,4.79-.038l.066.076-.589,3.165-.514.076-.608-2.309h-3.678v5.047h.513q.828,0,1.777-.019a.328.328,0,0,0,.323-.257l.342-1.3.627-.029q-.029,1.378-.028,2.063,0,.665.028,2.034l-.627.047-.352-1.34a.316.316,0,0,0-.294-.266q-.97-.019-1.806-.019h-.5v3.26q0,1.046.019,2.072h3.8l1.2-2.5.58-.086-.229,3.555-.066.067q-2.366-.028-4.609-.028h-2.519q-1.225,0-2.528.028l-.047-.475,1.273-.351a.316.316,0,0,0,.257-.295q.009-.38.015-.851t0-1.041v-7.575q0-.475,0-.865t-.015-.713a.308.308,0,0,0-.228-.314l-1.273-.371-.029-.485Q4428.363,1316.86,4429.561,1316.86Z" transform="translate(-4228.697 -1316.603)" fill="#fff"/>
      <path id="Tracé_167" data-name="Tracé 167" d="M4547.876,1316.458q1.33.038,2.738.038l1.6-.057q1.094-.038,1.5-.038a6.842,6.842,0,0,1,3.625.775,2.485,2.485,0,0,1,1.222,2.228q0,2.281-2.7,3.156a4.039,4.039,0,0,1,2.419,1.093,3.008,3.008,0,0,1,.851,2.186,3.351,3.351,0,0,1-1.53,2.941,7.66,7.66,0,0,1-4.334,1.041q-.551,0-1.154-.029t-1.506-.029q-1.39,0-2.69.029l-.048-.475,1.273-.352a.316.316,0,0,0,.257-.295c.007-.253.011-.537.015-.851s0-.661,0-1.041V1319.2c0-.316,0-.6,0-.865s-.008-.5-.015-.713a.307.307,0,0,0-.228-.314l-1.273-.371Zm4.382,5.874c.323.006.63.01.922.01a2.452,2.452,0,0,0,1.8-.585,2.743,2.743,0,0,0,.585-1.982,2.5,2.5,0,0,0-.6-1.882,2.442,2.442,0,0,0-1.744-.57c-.12,0-.261,0-.423.014s-.34.027-.536.052Zm0,.855v5.684a7.08,7.08,0,0,0,1.122.085,2.513,2.513,0,0,0,1.977-.756,3.185,3.185,0,0,0,.675-2.191,2.943,2.943,0,0,0-.685-2.134,3,3,0,0,0-2.215-.7Q4552.685,1323.178,4552.258,1323.187Z" transform="translate(-4333.165 -1316.24)" fill="#fff"/>
      <path id="Tracé_168" data-name="Tracé 168" d="M4647.242,1327.144q0,.571,0,1.036c0,.31.008.589.014.836.006.165.114.276.324.333l1.168.333.029.475q-1.321-.028-2.928-.028-1.662,0-2.965.028l-.047-.475,1.274-.351a.315.315,0,0,0,.256-.295q.01-.38.015-.851t0-1.041v-7.575q0-.475,0-.865t-.015-.713a.307.307,0,0,0-.229-.314l-1.273-.371-.028-.485q1.321.038,2.927.038,1.654,0,2.965-.038l.048.485-1.274.352a.3.3,0,0,0-.247.285c-.006.228-.01.474-.014.736s0,.547,0,.851Z" transform="translate(-4415.261 -1316.603)" fill="#fff"/>
      <path id="Tracé_169" data-name="Tracé 169" d="M4701.48,1316.86h2.4q2.31,0,4.791-.038l.066.076-.59,3.165-.513.076-.607-2.309h-3.679v5.047h.514q.825,0,1.776-.019a.328.328,0,0,0,.324-.257l.341-1.3.627-.029q-.028,1.378-.028,2.063,0,.665.028,2.034l-.627.047-.351-1.34a.316.316,0,0,0-.294-.266q-.97-.019-1.806-.019h-.5v3.26q0,1.046.018,2.072h3.8l1.2-2.5.58-.086-.229,3.555-.065.067q-2.367-.028-4.61-.028h-2.519q-1.225,0-2.528.028l-.047-.475,1.274-.351a.316.316,0,0,0,.257-.295q.009-.38.014-.851t0-1.041v-7.575q0-.475,0-.865t-.014-.713a.308.308,0,0,0-.229-.314l-1.274-.371-.028-.485Q4700.282,1316.86,4701.48,1316.86Z" transform="translate(-4463.768 -1316.603)" fill="#fff"/>
      <path id="Tracé_170" data-name="Tracé 170" d="M4786.489,1329a.311.311,0,0,0,.238.333l1.216.333.029.494q-1.283-.028-2.11-.028t-2.138.028l-.048-.475,1.274-.351a.315.315,0,0,0,.257-.295q.018-.77.019-1.891v-7.575q0-.95-.019-1.578a.308.308,0,0,0-.228-.314l-1.274-.371-.028-.485q1.331.038,2.044.038.929,0,1.767-.038l6.321,7.917q.379.475.779,1.007-.019-.656-.019-1.264v-4.952q0-.922-.019-1.587a.3.3,0,0,0-.248-.285l-1.216-.333-.029-.5q1.312.038,2.129.038.836,0,2.119-.038l.048.485-1.292.371a.307.307,0,0,0-.229.314q-.029.627-.028,1.578v10.559l-1.093.1-7.489-9.381q-.333-.428-.77-1.017.019.7.019,1.292v6.016Q4786.469,1328.265,4786.489,1329Z" transform="translate(-4537.01 -1316.603)" fill="#fff"/>
      <path id="Tracé_171" data-name="Tracé 171" d="M4900.692,1316.33a3.605,3.605,0,0,0-1.321-.238,2.556,2.556,0,0,0-1.707.589,2.047,2.047,0,0,0-.47,2.481,2.583,2.583,0,0,0,.608.713,4.646,4.646,0,0,0,.869.561q.491.247,1.013.494.58.276,1.169.6a5.005,5.005,0,0,1,1.055.779,3.827,3.827,0,0,1-.409,5.631,6.189,6.189,0,0,1-3.839,1.1,10.953,10.953,0,0,1-3.393-.542l-.057-.086.5-3.421.589-.1.713,2.908a3.609,3.609,0,0,0,1.521.314,2.944,2.944,0,0,0,1.944-.613,2.026,2.026,0,0,0,.736-1.64,1.97,1.97,0,0,0-.228-.984,2.565,2.565,0,0,0-.618-.722,4.737,4.737,0,0,0-.884-.566q-.494-.247-1.026-.494-.58-.285-1.16-.6a4.6,4.6,0,0,1-1.036-.761,3.54,3.54,0,0,1-.741-1.069,3.6,3.6,0,0,1-.286-1.507,3.464,3.464,0,0,1,1.388-2.889,5.723,5.723,0,0,1,3.6-1.074,13.718,13.718,0,0,1,3.2.437l.057.085-.58,3.061-.522.086Z" transform="translate(-4632.567 -1315.208)" fill="#fff"/>
    </g>
  </g>
</svg>
